<svg width="45" height="43" viewBox="0 0 45 43" fill="none" xmlns="http://www.w3.org/2000/svg">
<path d="M12.1092 8.32355C12.3739 7.86448 13.0211 7.86448 13.2859 8.32355C15.6295 12.3673 24.1608 14.5161 24.7785 21.0701C25.3179 26.8524 20.964 31.5896 12.6975 31.5896C4.43106 31.5896 0.0673891 26.8524 0.616526 21.0701C1.2245 14.5161 9.76553 12.3575 12.1092 8.32355Z" fill="#B891FF"/>
<path d="M12.1091 8.32355C9.76545 12.3575 1.22442 14.5161 0.606639 21.0701C0.0673085 26.8524 4.42118 31.5896 12.6876 31.5896V7.98169C12.4621 7.98169 12.2366 8.08913 12.1091 8.32355Z" fill="#B891FF"/>
<path d="M12.3739 8.32355C12.521 7.86448 12.874 7.86448 13.0211 8.32355C14.3057 12.3673 19.0028 14.5161 19.346 21.0701C19.6402 26.8524 17.2475 31.5896 12.6975 31.5896C8.14751 31.5896 5.75484 26.8524 6.04903 21.0701C6.38243 14.5161 11.0795 12.3575 12.3739 8.32355Z" fill="#9972E8"/>
<path d="M25.4454 19.1461C25.7101 18.687 26.3573 18.687 26.6221 19.1461C28.9657 23.1898 37.4969 25.3386 38.1147 31.8926C38.6541 37.6749 34.3002 42.4121 26.0337 42.4121C17.7672 42.4121 13.4036 37.6749 13.9527 31.8926C14.5705 25.3386 23.1017 23.18 25.4454 19.1461Z" fill="#FFE99E"/>
<path d="M35.7024 32.1171C35.4278 29.1967 32.7312 27.3115 29.8776 25.3092C29.2108 24.8404 28.5636 24.3813 27.936 23.9125C27.3673 23.4827 26.7005 23.2678 26.0239 23.2678C25.3473 23.2678 24.6804 23.4827 24.1117 23.9125C23.4939 24.3813 22.8369 24.8404 22.1701 25.3092C19.3166 27.3115 16.6199 29.1967 16.3453 32.1171C16.159 34.0804 16.7082 35.8288 17.9339 37.1669C18.9635 38.2901 20.4541 39.1008 22.278 39.5599C23.8077 39.9408 25.3276 38.8762 25.4943 37.3134L25.6905 35.5162C25.7101 35.3306 25.8572 35.2427 25.9945 35.2427C26.1415 35.2427 26.2788 35.3306 26.3082 35.5162L26.5044 37.3134C26.6809 38.8762 28.191 39.9408 29.7207 39.5599C31.5447 39.1106 33.0352 38.2999 34.0648 37.1669C35.3396 35.8288 35.8887 34.0804 35.7024 32.1171Z" fill="#E8434C"/>
<path d="M30.2796 32.1368C30.2796 29.8024 28.3772 27.9075 26.0336 27.9075C23.69 27.9075 21.7876 29.8024 21.7876 32.1368C21.7876 34.3344 23.4742 36.1414 25.6316 36.3465L25.7198 35.5163C25.7394 35.3307 25.8865 35.2428 26.0336 35.2428C26.1807 35.2428 26.318 35.3307 26.3376 35.5163L26.4258 36.3465C28.593 36.1414 30.2796 34.3442 30.2796 32.1368Z" fill="#FF5E67"/>
<path d="M38.6834 31.8339C38.2814 27.546 34.7316 25.0553 31.6035 22.8674C29.7305 21.5488 27.9556 20.3083 27.1123 18.8627C26.8868 18.472 26.4847 18.2376 26.0337 18.2376C25.5826 18.2376 25.1805 18.472 24.955 18.8627C24.9354 18.892 24.9158 18.9311 24.8962 18.9604C23.7685 15.8544 20.8561 13.813 18.2673 11.9962C16.3944 10.6776 14.6195 9.43715 13.7761 7.99157C13.5506 7.60087 13.1486 7.36646 12.6975 7.36646C12.2464 7.36646 11.8444 7.60087 11.6188 7.99157C10.7853 9.43715 9.01043 10.6776 7.12767 11.9962C3.99956 14.1841 0.449781 16.6748 0.0477345 20.9627C-0.217028 23.7465 0.626289 26.3446 2.41098 28.2981C3.50926 29.4995 4.93113 30.4372 6.63737 31.0818C8.41226 31.7558 10.4519 32.0976 12.7073 32.0976C12.9328 32.0976 13.1584 32.0976 13.3839 32.0878C13.1976 34.7739 14.0409 37.2841 15.7668 39.1692C16.865 40.3706 18.2869 41.3083 19.9932 41.953C21.768 42.6269 23.8077 42.9688 26.0631 42.9688C28.3185 42.9688 30.3581 42.6269 32.133 41.953C33.8392 41.3083 35.2611 40.3706 36.3594 39.1692C38.1049 37.2255 38.9384 34.6176 38.6834 31.8339ZM3.24449 27.5362C1.65592 25.8074 0.940081 23.5609 1.17543 21.0702C1.52844 17.2999 4.70559 15.073 7.77487 12.9241C8.53974 12.3869 9.285 11.8692 9.97142 11.332C9.7753 11.5958 9.56937 11.8497 9.36344 12.1134C7.64739 14.3013 5.696 16.7823 5.48026 20.992C5.28414 24.8404 6.24513 28.1809 8.12789 30.1539C8.23575 30.2613 8.34362 30.3688 8.45149 30.4762C6.29416 29.9195 4.50947 28.9232 3.24449 27.5362ZM12.6975 30.9744C11.2266 30.9744 9.97142 30.4372 8.95159 29.3725C7.28457 27.6241 6.43145 24.5865 6.61776 21.0506C6.81388 17.2023 8.56916 14.9655 10.2558 12.8069C11.2168 11.586 12.1287 10.4237 12.6877 9.03669C13.2564 10.4139 14.1684 11.5762 15.1196 12.8069C15.5706 13.3734 16.0315 13.9692 16.463 14.5846C16.6395 14.8385 16.9925 14.9069 17.2573 14.7311C17.5122 14.5553 17.5809 14.2037 17.4044 13.9399C16.9533 13.2953 16.4826 12.6897 16.0217 12.1037C15.8158 11.8399 15.6099 11.5762 15.4138 11.3223C16.1002 11.8595 16.8454 12.3869 17.6103 12.9144C20.3854 14.8581 23.2586 16.8799 24.0332 20.0446C23.1017 21.0116 21.8073 21.9199 20.4638 22.8674C20.2677 23.0041 20.0814 23.1409 19.8853 23.2776C19.9441 22.5353 19.9441 21.7734 19.9049 20.992C19.8167 19.2632 19.4342 17.7004 18.7282 16.1962C18.5909 15.913 18.2575 15.7958 17.9731 15.9227C17.6887 16.0595 17.5711 16.3916 17.6986 16.6748C18.3359 18.0325 18.689 19.4683 18.7674 21.0409C18.8262 22.1251 18.7772 23.1799 18.6399 24.1665C16.3159 25.8953 14.139 27.9465 13.5212 30.906C13.2564 30.9451 12.9819 30.9744 12.6975 30.9744ZM35.4867 38.4074C33.4666 40.6246 30.1032 41.8358 26.0337 41.8358C21.9642 41.8358 18.6105 40.6148 16.5807 38.4074C14.9921 36.6688 14.2763 34.432 14.5116 31.9413C14.8646 28.1711 18.0418 25.9441 21.111 23.7953C23.0919 22.4083 24.9648 21.0897 25.9258 19.4292C25.9454 19.3902 25.9846 19.3706 26.0239 19.3706C26.0631 19.3706 26.1023 19.3902 26.1219 19.4292C27.0829 21.0897 28.9559 22.4083 30.9367 23.7953C34.006 25.9441 37.1831 28.1711 37.5361 31.9413C37.7813 34.4418 37.0752 36.6785 35.4867 38.4074Z" fill="black"/>
<path d="M30.1817 24.8112C29.9267 24.6354 29.5737 24.694 29.3874 24.9479C29.2109 25.2019 29.2697 25.5535 29.5247 25.7293C32.1429 27.5754 34.8983 29.6461 35.1337 32.1563C35.3004 33.9535 34.8003 35.5554 33.6824 36.7763C32.741 37.8019 31.3388 38.5735 29.6227 38.9935C29.054 39.1303 28.4558 39.0228 27.9753 38.6907C27.485 38.3489 27.1712 37.8214 27.1026 37.2354L26.9064 35.4675C26.8574 35.0084 26.475 34.6568 26.0141 34.6665C25.563 34.6763 25.21 34.9986 25.161 35.4479L24.9649 37.2451C24.8962 37.8312 24.5824 38.3586 24.0921 38.7005C23.6116 39.0326 23.0135 39.14 22.4447 39.0033C20.7189 38.5735 19.3166 37.8019 18.385 36.7861C17.2671 35.5651 16.767 33.973 16.9337 32.1661C17.1789 29.5093 19.7775 27.6926 22.5232 25.7684C23.1998 25.2898 23.847 24.8405 24.4746 24.3619C25.3963 23.6684 26.6711 23.6684 27.5929 24.3521C27.838 24.5377 28.191 24.5084 28.3872 24.274C28.5931 24.02 28.5539 23.6586 28.2989 23.4633C26.9751 22.4572 25.1218 22.4572 23.7979 23.4633C23.19 23.9223 22.5526 24.3716 21.876 24.8405C18.9145 26.921 16.11 28.8744 15.8158 32.0586C15.6197 34.1879 16.2179 36.0828 17.5515 37.5382C18.64 38.7298 20.2384 39.6089 22.1799 40.0972C23.0625 40.3219 24.0039 40.1461 24.7491 39.6284C25.4159 39.1693 25.8768 38.4758 26.0435 37.7042C26.22 38.4856 26.6711 39.1693 27.3379 39.6284C27.8772 39.9996 28.5048 40.1949 29.1422 40.1949C29.3972 40.1949 29.6521 40.1656 29.9071 40.0972C31.8487 39.6186 33.4471 38.7298 34.5355 37.5382C35.8691 36.073 36.4771 34.1782 36.2712 32.0586C35.9868 29.0503 33.0156 26.8135 30.1817 24.8112Z" fill="black"/>
<path d="M20.2383 35.1352C20.356 35.1352 20.4835 35.0961 20.5913 35.018L20.9345 34.7542C21.1797 34.5589 21.2287 34.2073 21.0326 33.9631C20.8365 33.7189 20.4835 33.6701 20.2383 33.8654L19.8951 34.1291C19.65 34.3245 19.6009 34.6761 19.797 34.9203C19.8951 35.057 20.0618 35.1352 20.2383 35.1352Z" fill="black"/>
<path d="M20.5031 31.9414C20.6992 31.6972 20.66 31.3456 20.4148 31.1502L20.2285 31.0037C19.9834 30.8083 19.6304 30.8474 19.4342 31.0916C19.2381 31.3358 19.2773 31.6874 19.5225 31.8828L19.7088 32.0293C19.8167 32.1172 19.9343 32.1563 20.0618 32.1563C20.2285 32.1563 20.3854 32.0781 20.5031 31.9414Z" fill="black"/>
<path d="M22.9546 29.2847C23.082 29.2847 23.2095 29.2456 23.3174 29.1577C23.5625 28.9624 23.592 28.601 23.386 28.3666L23.1997 28.1419C23.0036 27.8977 22.6408 27.8684 22.4054 28.0735C22.1603 28.2689 22.1309 28.6303 22.3368 28.8647L22.5231 29.0894C22.631 29.2163 22.7879 29.2847 22.9546 29.2847Z" fill="black"/>
<path d="M26.4062 26.3545L26.5925 26.2373C26.8573 26.081 26.9456 25.7294 26.7887 25.4656C26.6318 25.2019 26.2788 25.114 26.014 25.2703L25.8277 25.3875C25.5629 25.5438 25.4747 25.8954 25.6316 26.1591C25.7394 26.3349 25.9257 26.4326 26.1219 26.4326C26.2101 26.4424 26.3082 26.4131 26.4062 26.3545Z" fill="black"/>
<path d="M28.6029 28.9623C28.7107 29.1186 28.8872 29.1968 29.0637 29.1968C29.1814 29.1968 29.2991 29.1577 29.3971 29.0893L29.8188 28.7865C30.0738 28.6009 30.1326 28.2493 29.9463 27.9954C29.76 27.7414 29.407 27.6828 29.152 27.8684L28.7303 28.1712C28.4754 28.3568 28.4263 28.7084 28.6029 28.9623Z" fill="black"/>
<path d="M31.7702 30.5445C31.7114 30.2417 31.4074 30.0366 31.1034 30.105C30.7994 30.1636 30.5935 30.4664 30.6622 30.7692L30.7406 31.1501C30.7896 31.4236 31.0348 31.6092 31.2995 31.6092C31.3388 31.6092 31.378 31.6092 31.4074 31.5994C31.7114 31.5408 31.9173 31.238 31.8487 30.9352L31.7702 30.5445Z" fill="black"/>
<path d="M32.1134 34.0414L32.4174 34.1879C32.4959 34.227 32.5841 34.2465 32.6724 34.2465C32.8783 34.2465 33.0842 34.1293 33.1823 33.934C33.3196 33.6507 33.2117 33.3186 32.9273 33.1721L32.6234 33.0256C32.339 32.8888 32.0056 32.9963 31.8585 33.2795C31.7114 33.5628 31.8291 33.9046 32.1134 34.0414Z" fill="black"/>
<path d="M30.064 36.3465V36.4247C30.064 36.7372 30.3189 36.9912 30.6327 36.9912C30.9465 36.9912 31.2015 36.7372 31.2015 36.4247V36.3465C31.2015 36.034 30.9465 35.78 30.6327 35.78C30.3189 35.78 30.064 36.034 30.064 36.3465Z" fill="black"/>
<path d="M23.6508 33.2306C23.9155 33.0743 24.0038 32.7226 23.8469 32.4589L23.4841 31.8436C23.3272 31.5798 22.9742 31.4919 22.7094 31.6482C22.4446 31.8045 22.3564 32.1561 22.5133 32.4199L22.8761 33.0352C22.984 33.211 23.1703 33.3087 23.3664 33.3087C23.4546 33.3087 23.5527 33.2794 23.6508 33.2306Z" fill="black"/>
<path d="M26.7887 32.1367C26.9064 32.1367 27.024 32.0976 27.1319 32.0195L27.279 31.9023C27.534 31.7167 27.583 31.3651 27.3967 31.1111C27.2104 30.8572 26.8573 30.8083 26.6024 30.9939L26.4553 31.1111C26.2003 31.2967 26.1513 31.6483 26.3376 31.9023C26.4455 32.0586 26.622 32.1367 26.7887 32.1367Z" fill="black"/>
<path d="M22.0622 36.2585C21.8857 36.5222 21.9642 36.8739 22.2289 37.0399L22.3858 37.1474C22.4839 37.206 22.5918 37.245 22.6996 37.245C22.886 37.245 23.0625 37.1571 23.1703 36.9911C23.3468 36.7274 23.2684 36.3757 23.0036 36.2097L22.8467 36.1022C22.5918 35.9264 22.2388 35.9948 22.0622 36.2585Z" fill="black"/>
<path d="M25.7199 28.4055C25.465 28.22 25.1119 28.2688 24.9256 28.5227C24.7393 28.7767 24.7883 29.1283 25.0433 29.3139L25.1904 29.4311C25.2885 29.5093 25.4159 29.5483 25.5336 29.5483C25.7101 29.5483 25.8768 29.4702 25.9847 29.3237C26.171 29.0697 26.122 28.7181 25.867 28.5325L25.7199 28.4055Z" fill="black"/>
<path d="M28.4362 33.2599C28.1518 33.3966 28.0439 33.7385 28.1812 34.0217L28.2204 34.0998C28.3185 34.2952 28.5244 34.4124 28.7303 34.4124C28.8186 34.4124 28.9069 34.3929 28.9853 34.3538C29.2697 34.2171 29.3775 33.8752 29.2403 33.5919L29.201 33.5138C29.0539 33.2306 28.7107 33.1133 28.4362 33.2599Z" fill="black"/>
<path opacity="0.85" d="M31.1515 27.9075C28.6029 28.4746 20.3126 26.4408 16.5145 20.0851C14.0849 16.0175 14.3428 9.94537 19.0036 7.23687C21.3538 5.86795 24.2098 5.89728 26.4014 7.25642C27.8691 4.81193 30.7846 3.8928 33.1051 4.09814C38.4997 4.57726 41.3756 9.94537 40.9591 14.6486C40.6219 18.7064 38.47 21.8941 36.7247 23.8497C34.6521 26.1573 32.3514 27.6337 31.1515 27.9075Z" fill="#DB1E46"/>
<mask id="path-23-outside-1_1_1657" maskUnits="userSpaceOnUse" x="16.9988" y="-0.000488281" width="28" height="26" fill="black">
<rect fill="white" x="16.9988" y="-0.000488281" width="28" height="26"/>
<path fill-rule="evenodd" clip-rule="evenodd" d="M19.5145 17.0616C23.3126 23.4361 31.6029 25.4759 34.1515 24.9071C35.3514 24.6325 37.6521 23.1517 39.7247 20.8373C41.47 18.8759 43.6219 15.6789 43.9591 11.609C44.3756 6.89192 41.4997 1.50795 36.1051 1.02742C33.7846 0.821474 30.8691 1.74332 29.4014 4.19503C27.2098 2.83188 24.3538 2.80246 22.0036 4.17542C17.3428 6.89192 17.0849 12.982 19.5145 17.0616ZM28.0428 22.0926C25.8612 21.1609 22.8564 19.3957 20.9624 16.2182C18.9394 12.8251 19.0881 7.80396 22.8465 5.61703C24.5026 4.64615 27.1702 4.38136 29.1436 6.09756C29.3518 6.2839 29.6394 6.35254 29.9072 6.2839C30.1749 6.22505 30.3931 6.02892 30.4923 5.77394C31.3947 3.41049 33.9532 2.51806 35.9464 2.69458C40.2998 3.07705 42.6203 7.54898 42.2732 11.4717C41.6981 18.3267 35.2919 22.9556 33.7747 23.289C32.9813 23.4655 30.6807 23.2105 28.0428 22.0926ZM38.2226 10.238C38.2324 10.2282 38.2422 10.2282 38.2521 10.2282C38.6835 10.1306 38.9679 9.70079 38.8894 9.28079C38.4874 7.17103 36.889 5.92079 34.918 6.15521C34.4571 6.20405 34.1335 6.62405 34.1924 7.07335C34.2414 7.52265 34.6532 7.85475 35.1141 7.79614C36.1928 7.66916 37.0165 8.35289 37.2518 9.58358C37.3401 10.0329 37.7716 10.3259 38.2226 10.238Z"/>
</mask>
<path fill-rule="evenodd" clip-rule="evenodd" d="M19.5145 17.0616C23.3126 23.4361 31.6029 25.4759 34.1515 24.9071C35.3514 24.6325 37.6521 23.1517 39.7247 20.8373C41.47 18.8759 43.6219 15.6789 43.9591 11.609C44.3756 6.89192 41.4997 1.50795 36.1051 1.02742C33.7846 0.821474 30.8691 1.74332 29.4014 4.19503C27.2098 2.83188 24.3538 2.80246 22.0036 4.17542C17.3428 6.89192 17.0849 12.982 19.5145 17.0616ZM28.0428 22.0926C25.8612 21.1609 22.8564 19.3957 20.9624 16.2182C18.9394 12.8251 19.0881 7.80396 22.8465 5.61703C24.5026 4.64615 27.1702 4.38136 29.1436 6.09756C29.3518 6.2839 29.6394 6.35254 29.9072 6.2839C30.1749 6.22505 30.3931 6.02892 30.4923 5.77394C31.3947 3.41049 33.9532 2.51806 35.9464 2.69458C40.2998 3.07705 42.6203 7.54898 42.2732 11.4717C41.6981 18.3267 35.2919 22.9556 33.7747 23.289C32.9813 23.4655 30.6807 23.2105 28.0428 22.0926ZM38.2226 10.238C38.2324 10.2282 38.2422 10.2282 38.2521 10.2282C38.6835 10.1306 38.9679 9.70079 38.8894 9.28079C38.4874 7.17103 36.889 5.92079 34.918 6.15521C34.4571 6.20405 34.1335 6.62405 34.1924 7.07335C34.2414 7.52265 34.6532 7.85475 35.1141 7.79614C36.1928 7.66916 37.0165 8.35289 37.2518 9.58358C37.3401 10.0329 37.7716 10.3259 38.2226 10.238Z" fill="white"/>
<path d="M34.1515 24.9071L34.3693 25.8831L34.3746 25.8819L34.1515 24.9071ZM19.5145 17.0616L18.6553 17.5733L18.6555 17.5735L19.5145 17.0616ZM39.7247 20.8373L40.4696 21.5044L40.4717 21.502L39.7247 20.8373ZM43.9591 11.609L42.9629 11.5211L42.9625 11.5265L43.9591 11.609ZM36.1051 1.02742L36.1938 0.0313621L36.1935 0.0313334L36.1051 1.02742ZM29.4014 4.19503L28.8733 5.04418L29.737 5.58141L30.2594 4.70866L29.4014 4.19503ZM22.0036 4.17542L22.5072 5.03939L22.508 5.03888L22.0036 4.17542ZM20.9624 16.2182L21.8213 15.7062L21.8213 15.7062L20.9624 16.2182ZM28.0428 22.0926L27.6501 23.0122L27.6526 23.0133L28.0428 22.0926ZM22.8465 5.61703L23.3495 6.48136L23.3523 6.47971L22.8465 5.61703ZM29.1436 6.09756L29.8105 5.35225L29.7998 5.34299L29.1436 6.09756ZM29.9072 6.2839L29.6925 5.3072L29.6756 5.31092L29.6588 5.31523L29.9072 6.2839ZM30.4923 5.77394L31.4243 6.13642L31.4265 6.13064L30.4923 5.77394ZM35.9464 2.69458L35.8582 3.69069L35.8589 3.69075L35.9464 2.69458ZM42.2732 11.4717L41.2771 11.3836L41.2767 11.3881L42.2732 11.4717ZM33.7747 23.289L33.56 22.3123L33.5575 22.3129L33.7747 23.289ZM38.2521 10.2282V11.2282H38.3638L38.4728 11.2036L38.2521 10.2282ZM38.2226 10.238L38.4139 11.2195L38.7127 11.1613L38.9284 10.9465L38.2226 10.238ZM38.8894 9.28079L39.8724 9.09718L39.8718 9.0936L38.8894 9.28079ZM34.918 6.15521L35.0234 7.14973L35.0361 7.14821L34.918 6.15521ZM34.1924 7.07335L35.1865 6.96487L35.1853 6.95418L35.1839 6.94351L34.1924 7.07335ZM35.1141 7.79614L34.9972 6.80296L34.988 6.80413L35.1141 7.79614ZM37.2518 9.58358L36.2696 9.77141L36.2706 9.77632L37.2518 9.58358ZM33.9337 23.9311C33.4845 24.0314 32.6398 24.0345 31.4972 23.8328C30.3806 23.6358 29.0612 23.2578 27.6975 22.6698C24.9608 21.4899 22.1339 19.5042 20.3736 16.5498L18.6555 17.5735C20.6932 20.9935 23.9105 23.215 26.9056 24.5064C28.4079 25.1541 29.8763 25.5777 31.1496 25.8024C32.3969 26.0225 33.5442 26.0673 34.3693 25.8831L33.9337 23.9311ZM38.9797 20.1702C37.9933 21.2717 36.9565 22.17 36.0347 22.8198C35.0885 23.4868 34.3398 23.8382 33.9284 23.9323L34.3746 25.8819C35.1631 25.7015 36.1647 25.1751 37.187 24.4545C38.2336 23.7166 39.3834 22.7173 40.4696 21.5044L38.9797 20.1702ZM42.9625 11.5265C42.6505 15.2928 40.6509 18.2921 38.9776 20.1725L40.4717 21.502C42.2891 19.4597 44.5933 16.0649 44.9556 11.6916L42.9625 11.5265ZM36.0164 2.02347C40.6744 2.4384 43.3492 7.14623 42.9629 11.5211L44.9552 11.697C45.4019 6.63761 42.325 0.577511 36.1938 0.0313621L36.0164 2.02347ZM30.2594 4.70866C31.4772 2.67439 33.9633 1.84126 36.0167 2.0235L36.1935 0.0313334C33.6059 -0.198313 30.261 0.81225 28.5434 3.6814L30.2594 4.70866ZM22.508 5.03888C24.5503 3.8458 27.0085 3.88431 28.8733 5.04418L29.9296 3.34589C27.4112 1.77945 24.1574 1.75912 21.4992 3.31196L22.508 5.03888ZM20.3737 16.55C18.1172 12.7609 18.4954 7.37756 22.5072 5.03939L21.5001 3.31145C16.1901 6.40628 16.0527 13.203 18.6553 17.5733L20.3737 16.55ZM20.1034 16.7303C22.1507 20.1648 25.3739 22.0402 27.6501 23.0122L28.4356 21.1729C26.3484 20.2816 23.5621 18.6265 21.8213 15.7062L20.1034 16.7303ZM22.3436 4.7527C20.1522 6.0278 19.0319 8.13011 18.7448 10.3363C18.4602 12.5231 18.9831 14.8512 20.1034 16.7303L21.8213 15.7062C20.9186 14.1921 20.5044 12.3131 20.728 10.5943C20.9492 8.8949 21.7824 7.39319 23.3494 6.48135L22.3436 4.7527ZM29.7998 5.34299C27.4215 3.27463 24.2653 3.62607 22.3408 4.75435L23.3523 6.47971C24.7399 5.66622 26.9189 5.4881 28.4874 6.85213L29.7998 5.34299ZM29.6588 5.31523C29.7121 5.30156 29.7683 5.31466 29.8104 5.35233L28.4768 6.8428C28.9354 7.25313 29.5667 7.40352 30.1555 7.25256L29.6588 5.31523ZM29.5603 5.41147C29.5752 5.37315 29.6145 5.32436 29.6925 5.3072L30.1218 7.26059C30.7354 7.12575 31.211 6.68468 31.4242 6.13641L29.5603 5.41147ZM36.0346 1.69848C33.7707 1.49798 30.6749 2.49225 29.558 5.41723L31.4265 6.13064C32.1145 4.32872 34.1357 3.53814 35.8582 3.69069L36.0346 1.69848ZM43.2693 11.5599C43.4617 9.38536 42.9189 7.06135 41.7099 5.20899C40.4907 3.34089 38.5662 1.92089 36.0339 1.69842L35.8589 3.69075C37.68 3.85074 39.0925 4.85794 40.0351 6.30211C40.9879 7.76202 41.4318 9.63534 41.2771 11.3836L43.2693 11.5599ZM33.9893 24.2657C34.5799 24.1359 35.4048 23.6785 36.2431 23.0795C37.1226 22.4511 38.1374 21.5797 39.1182 20.4975C41.0717 18.3419 42.9578 15.2732 43.2697 11.5553L41.2767 11.3881C41.0135 14.5252 39.4089 17.1984 37.6363 19.1544C36.7539 20.128 35.8468 20.9047 35.0804 21.4522C34.2729 22.0291 33.728 22.2754 33.56 22.3123L33.9893 24.2657ZM27.6526 23.0133C29.0403 23.6014 30.3462 23.9658 31.4226 24.1603C32.4567 24.3471 33.3931 24.3984 33.9919 24.2651L33.5575 22.3129C33.3629 22.3561 32.7523 22.3682 31.7783 22.1921C30.8466 22.0238 29.6832 21.7017 28.4331 21.1718L27.6526 23.0133ZM38.2521 9.22823C38.228 9.22823 37.8376 9.21007 37.5169 9.52952L38.9284 10.9465C38.8021 11.0722 38.6455 11.1584 38.479 11.1998C38.3459 11.233 38.2286 11.2282 38.2521 11.2282V9.22823ZM37.9064 9.4644C37.8936 9.39571 37.9135 9.34521 37.9309 9.31917C37.9488 9.29244 37.9818 9.26411 38.0313 9.25291L38.4728 11.2036C39.4139 10.9905 40.0523 10.0602 39.8724 9.09718L37.9064 9.4644ZM35.0361 7.14821C35.7725 7.06063 36.3971 7.25037 36.8743 7.62528C37.3564 8.004 37.7452 8.61805 37.9071 9.46799L39.8718 9.0936C39.6317 7.83377 39.0203 6.76782 38.1099 6.05258C37.1946 5.33355 36.0345 5.01538 34.7999 5.16221L35.0361 7.14821ZM35.1839 6.94351C35.1974 7.04658 35.1261 7.13876 35.0234 7.14964L34.8126 5.16078C33.7881 5.26934 33.0697 6.20152 33.2008 7.20319L35.1839 6.94351ZM34.988 6.80413C35.0845 6.79185 35.1751 6.86091 35.1865 6.96487L33.1983 7.18183C33.3077 8.1844 34.2219 8.91764 35.2403 8.78815L34.988 6.80413ZM38.234 9.39576C38.0832 8.60672 37.7251 7.90128 37.1399 7.41294C36.5427 6.91463 35.7877 6.70994 34.9972 6.803L35.231 8.78928C35.5192 8.75537 35.7153 8.82905 35.8585 8.94853C36.0137 9.07798 36.1852 9.32974 36.2696 9.77141L38.234 9.39576ZM38.0313 9.25647C38.1255 9.23812 38.2157 9.30251 38.2331 9.39084L36.2706 9.77632C36.4644 10.7633 37.4176 11.4137 38.4139 11.2195L38.0313 9.25647Z" fill="#DB1E46" mask="url(#path-23-outside-1_1_1657)"/>
</svg>
