<svg width="54" height="46" viewBox="0 0 54 46" fill="none" xmlns="http://www.w3.org/2000/svg">
                <path d="M23.7255 17.4148C22.7292 18.6648 22.2366 21.1099 22.2366 21.1099H26.2555C26.2555 21.1099 25.763 18.6648 24.7666 17.4148C24.5091 17.0968 23.983 17.0968 23.7255 17.4148Z" fill="#FF8087"/>
                <path d="M38.4579 8.23727C37.4616 9.48727 36.969 11.9324 36.969 11.9324H40.9879C40.9879 11.9324 40.4954 9.48727 39.499 8.23727C39.2527 7.91928 38.7154 7.91928 38.4579 8.23727Z" fill="#FF8087"/>
                <path d="M25.5839 23.7415C25.5839 16.8556 30.6551 11.2744 38.9729 11.2744C47.2906 11.2744 52.3619 16.8556 52.3619 23.7415C52.3619 30.6275 47.2906 36.2086 38.9729 36.2086C30.6551 36.1977 25.5839 30.6165 25.5839 23.7415Z" fill="#D31527"/>
                <path d="M27.6437 30.7263C29.8603 34.0267 33.7897 36.1978 38.9729 36.1978C47.2907 36.1978 52.3619 30.6166 52.3619 23.7307C52.3619 19.4653 50.414 15.7043 46.9548 13.4565C48.2982 15.4522 49.0147 17.8535 49.0147 20.4522C49.0147 27.3381 43.9434 32.9193 35.6256 32.9193C32.4687 32.9193 29.7707 32.1079 27.6437 30.7263Z" fill="#AF0011"/>
                <path d="M10.8514 32.9193C10.8514 26.0333 15.9227 20.4521 24.2405 20.4521C32.5582 20.4521 37.6295 26.0333 37.6295 32.9193C37.6295 39.8052 32.5582 45.3864 24.2405 45.3864C15.9227 45.3864 10.8514 39.8052 10.8514 32.9193Z" fill="#FFF6D8"/>
                <path d="M13.527 32.9192C13.527 38.8074 17.837 42.7548 24.2405 42.7548C30.6439 42.7548 34.9539 38.7964 34.9539 32.9192C34.9539 28.7635 32.8045 25.5728 29.2893 24.0596C27.834 23.4346 26.1436 24.2241 25.6846 25.7043L25.0129 27.8644C24.901 28.2372 24.5763 28.4236 24.2517 28.4236C23.927 28.4236 23.6024 28.2372 23.4904 27.8644L22.8187 25.7043C22.3485 24.2131 20.6693 23.4346 19.214 24.0596C15.6764 25.5728 13.527 28.7635 13.527 32.9192Z" fill="#D31527"/>
                <path d="M15.2062 38.5772C17.031 41.1978 20.2215 42.7658 24.2517 42.7658C30.6663 42.7658 34.9651 38.8074 34.9651 32.9302C34.9651 29.6298 33.6105 26.9434 31.282 25.2109C32.3567 26.757 32.9501 28.6758 32.9501 30.8579C32.9501 36.746 28.64 40.6934 22.2366 40.6934C19.4267 40.6934 17.0198 39.9258 15.2062 38.5772Z" fill="#AF0011"/>
                <path d="M10.2245 32.9192C10.2245 36.5157 11.5567 39.7942 13.986 42.1626C16.5496 44.6626 20.0984 45.9894 24.2517 45.9894C28.1139 45.9894 31.4947 44.8271 34.0136 42.6232C35.7824 41.0771 37.0586 39.0486 37.7303 36.7679C38.1445 36.8008 38.5699 36.8118 38.9841 36.8118C43.1374 36.8118 46.6861 35.485 49.2497 32.985C51.679 30.6166 53.0112 27.3271 53.0112 23.7416C53.0112 20.1561 51.679 16.8666 49.2497 14.4982C47.2571 12.5464 44.671 11.3183 41.6708 10.8688C41.9171 9.69553 43.1486 9.2679 43.2157 9.24597C43.5404 9.13632 43.7195 8.78544 43.6075 8.46746C43.4956 8.14948 43.1486 7.97404 42.8127 8.08369C42.7455 8.10562 41.6484 8.47843 40.9544 9.4543C40.4842 8.52228 39.9356 7.86439 39.3311 7.49158C39.1296 7.37097 38.8721 7.37097 38.6706 7.49158C38.0661 7.86439 37.5176 8.52228 37.0474 9.4543C36.3533 8.47843 35.2562 8.10562 35.189 8.08369C34.8644 7.97404 34.5061 8.14948 34.3942 8.46746C34.2822 8.78544 34.4614 9.13632 34.786 9.24597C34.8532 9.2679 36.0846 9.7065 36.3309 10.8797C33.9912 11.2416 31.8754 12.0749 30.129 13.3468C28.3378 14.6517 26.9608 16.3622 26.0876 18.3688C25.651 17.5793 25.1585 17.0091 24.6099 16.6802C24.4084 16.5596 24.1509 16.5596 23.9494 16.6802C23.3449 17.053 22.7963 17.7109 22.3262 18.6429C21.6321 17.667 20.535 17.2942 20.4678 17.2723C20.1432 17.1626 19.7849 17.3381 19.673 17.6561C19.561 17.974 19.7402 18.3249 20.0648 18.4346C20.132 18.4565 21.3634 18.8841 21.6097 20.0574C18.6095 20.5069 16.0235 21.746 14.0308 23.6868C11.5567 26.0442 10.2245 29.3227 10.2245 32.9192ZM25.4047 19.8819C25.0241 19.86 24.6435 19.849 24.2517 19.849C23.8599 19.849 23.4792 19.86 23.0986 19.8819C23.3449 19.246 23.7479 18.4455 24.2517 17.9631C24.7554 18.4455 25.1473 19.246 25.4047 19.8819ZM40.1371 10.6933C39.7565 10.6714 39.3759 10.6604 38.9841 10.6604C38.5923 10.6604 38.2116 10.6714 37.831 10.6933C38.0773 10.0574 38.4803 9.25693 38.9841 8.77448C39.4878 9.2679 39.8797 10.0683 40.1371 10.6933ZM11.4784 32.9192C11.4784 29.6517 12.6874 26.6802 14.8704 24.542C17.1989 22.2723 20.4342 21.0661 24.2405 21.0661C27.778 21.0661 30.8566 22.1188 33.1404 24.1034C35.2786 25.9675 36.622 28.61 36.9354 31.5596C36.969 31.8995 37.2825 32.1407 37.6183 32.1078C37.9653 32.0749 38.2116 31.7679 38.178 31.439C37.8422 28.1824 36.3421 25.2547 33.9688 23.1933C32.0545 21.5267 29.6476 20.4631 26.9048 20.0464C27.1511 18.8512 28.4273 18.4236 28.4385 18.4236C28.7632 18.314 28.9423 17.974 28.8304 17.6451C28.7184 17.3161 28.3714 17.1517 28.0355 17.2613H28.0243C28.7632 16.121 29.6924 15.1341 30.8118 14.3227C32.9948 12.7328 35.8047 11.8995 38.9505 11.8995C42.7567 11.8995 46.0032 13.0947 48.3206 15.3754C50.5036 17.5135 51.7126 20.485 51.7126 23.7525C51.7126 27.0201 50.5036 29.9916 48.3206 32.1297C45.992 34.3995 42.7567 35.6056 38.9505 35.6056C38.6258 35.6056 38.3012 35.5947 37.9877 35.5727C38.0661 35.178 38.1221 34.7613 38.1669 34.3556C38.2004 34.0157 37.9541 33.7197 37.6071 33.6868C37.2601 33.6539 36.9578 33.8951 36.9242 34.235C36.6332 37.1955 35.2898 39.86 33.1404 41.735C30.8566 43.7306 27.7668 44.7942 24.2181 44.7942C20.4118 44.7942 17.1653 43.599 14.848 41.3183C12.6874 39.1582 11.4784 36.1868 11.4784 32.9192Z" fill="black"/>
                <path d="M12.9001 32.9193C12.9001 35.9785 13.986 38.5991 16.0571 40.496C18.1057 42.382 20.938 43.3798 24.2517 43.3798C27.5541 43.3798 30.3864 42.382 32.4463 40.496C34.5061 38.5991 35.6032 35.9785 35.6032 32.9193C35.6032 28.5881 33.3978 25.1561 29.5692 23.5004C28.7296 23.1385 27.7556 23.1495 26.9048 23.5223C26.0428 23.9061 25.3823 24.6407 25.1025 25.5289L24.4308 27.689C24.4084 27.7657 24.3524 27.8096 24.2629 27.8096C24.1733 27.8096 24.1173 27.7657 24.0949 27.689L23.4233 25.5289C23.1434 24.6407 22.4941 23.9061 21.6209 23.5223C20.7701 23.1385 19.8073 23.1385 18.9565 23.5004C17.9826 23.9171 17.0982 24.4653 16.3257 25.1232C16.0683 25.3425 16.0347 25.7372 16.2698 25.9894C16.4937 26.2416 16.8967 26.2745 17.1542 26.0442C17.8258 25.4741 18.5983 24.9916 19.4603 24.6188C19.9864 24.3885 20.5686 24.3995 21.0947 24.6298C21.6321 24.871 22.0463 25.3206 22.2142 25.8798L22.8859 28.0399C23.0762 28.632 23.6248 29.0267 24.2517 29.0267C24.8786 29.0267 25.4271 28.632 25.6174 28.0399L26.2891 25.8798C26.4682 25.3315 26.8713 24.871 27.4086 24.6298C27.9348 24.3885 28.5169 24.3885 29.0431 24.6188C32.4015 26.0662 34.3382 29.0925 34.3382 32.9193C34.3382 35.6385 33.3866 37.9412 31.5843 39.5969C29.7707 41.2635 27.2295 42.1407 24.2517 42.1407C21.2738 42.1407 18.7326 41.2635 16.9191 39.5969C15.1167 37.9412 14.1651 35.6276 14.1651 32.9193C14.1651 31.1429 14.5681 29.5421 15.3742 28.1605C15.5421 27.8644 15.4413 27.4916 15.1391 27.3271C14.8368 27.1627 14.4562 27.2614 14.2883 27.5574C13.3703 29.1144 12.9001 30.9236 12.9001 32.9193Z" fill="black"/>
                <path d="M32.0545 35.156C31.8082 34.9148 31.4164 34.9148 31.1701 35.156L30.4984 35.8139C30.2521 36.0551 30.2521 36.4389 30.4984 36.6801C30.6215 36.8008 30.7783 36.8556 30.9462 36.8556C31.1029 36.8556 31.2708 36.8008 31.394 36.6801L32.0657 36.0222C32.3008 35.781 32.3008 35.3972 32.0545 35.156Z" fill="black"/>
                <path d="M29.9163 33.0288C30.0394 33.1494 30.1961 33.2042 30.3641 33.2042C30.5208 33.2042 30.6887 33.1494 30.8119 33.0288C31.0581 32.7876 31.0581 32.4038 30.8119 32.1625L30.1402 31.5047C29.8939 31.2634 29.502 31.2634 29.2558 31.5047C29.0095 31.7459 29.0095 32.1297 29.2558 32.3709L29.9163 33.0288Z" fill="black"/>
                <path d="M29.0431 34.9368C29.2893 34.6956 29.2893 34.3118 29.0431 34.0706C28.7968 33.8293 28.405 33.8293 28.1587 34.0706L27.487 34.7285C27.2407 34.9697 27.2407 35.3535 27.487 35.5947C27.6101 35.7153 27.7669 35.7701 27.9348 35.7701C28.1027 35.7701 28.2594 35.7153 28.3826 35.5947L29.0431 34.9368Z" fill="black"/>
                <path d="M28.2258 29.9697V29.3118C28.2258 28.9719 27.946 28.6978 27.5989 28.6978C27.2519 28.6978 26.972 28.9719 26.972 29.3118V29.9697C26.972 30.3096 27.2519 30.5837 27.5989 30.5837C27.946 30.5837 28.2258 30.3096 28.2258 29.9697Z" fill="black"/>
                <path d="M31.5955 28.7635C31.8417 28.5222 31.8417 28.1385 31.5955 27.8972C31.3492 27.656 30.9574 27.656 30.7111 27.8972L30.0394 28.5551C29.7931 28.7964 29.7931 29.1801 30.0394 29.4214C30.1625 29.542 30.3193 29.5968 30.4872 29.5968C30.6551 29.5968 30.8118 29.542 30.935 29.4214L31.5955 28.7635Z" fill="black"/>
                <path d="M21.285 34.3555H21.9567C22.3037 34.3555 22.5836 34.0814 22.5836 33.7415C22.5836 33.4016 22.3037 33.1274 21.9567 33.1274H21.285C20.938 33.1274 20.6581 33.4016 20.6581 33.7415C20.6581 34.0814 20.938 34.3555 21.285 34.3555Z" fill="black"/>
                <path d="M25.4719 32.8972C25.6286 32.8972 25.7966 32.8424 25.9197 32.7218C26.166 32.4806 26.166 32.0968 25.9197 31.8556L25.4495 31.395C25.2032 31.1538 24.8114 31.1538 24.5651 31.395C24.3188 31.6363 24.3188 32.02 24.5651 32.2613L25.0353 32.7218C25.1584 32.8314 25.3152 32.8972 25.4719 32.8972Z" fill="black"/>
                <path d="M28.3714 39.5859C28.6177 39.3447 28.6177 38.9609 28.3714 38.7197L27.6997 38.0618C27.4534 37.8206 27.0616 37.8206 26.8153 38.0618C26.569 38.303 26.569 38.6868 26.8153 38.928L27.487 39.5859C27.6101 39.7065 27.7669 39.7613 27.9348 39.7613C28.0915 39.7723 28.2482 39.7065 28.3714 39.5859Z" fill="black"/>
                <path d="M25.5951 36.0881V35.4302C25.5951 35.0903 25.3152 34.8162 24.9682 34.8162C24.6211 34.8162 24.3412 35.0903 24.3412 35.4302V36.0881C24.3412 36.428 24.6211 36.7021 24.9682 36.7021C25.3152 36.7021 25.5951 36.428 25.5951 36.0881Z" fill="black"/>
                <path d="M21.3746 37.7439C21.4978 37.8645 21.6545 37.9193 21.8224 37.9193C21.9791 37.9193 22.1471 37.8645 22.2702 37.7439L22.9419 37.086C23.1882 36.8447 23.1882 36.461 22.9419 36.2197C22.6956 35.9785 22.3038 35.9785 22.0575 36.2197L21.3858 36.8776C21.1283 37.1189 21.1283 37.5026 21.3746 37.7439Z" fill="black"/>
                <path d="M20.5686 31.4938C20.6917 31.6144 20.8484 31.6692 21.0164 31.6692C21.1843 31.6692 21.341 31.6144 21.4642 31.4938L21.9343 31.0332C22.1806 30.792 22.1806 30.4082 21.9343 30.167C21.6881 29.9258 21.2962 29.9258 21.0499 30.167L20.5798 30.6275C20.3223 30.8688 20.3223 31.2525 20.5686 31.4938Z" fill="black"/>
                <path d="M19.561 29.5969C19.9081 29.5969 20.1879 29.3228 20.1879 28.9829V28.325C20.1879 27.9851 19.9081 27.7109 19.561 27.7109C19.214 27.7109 18.9341 27.9851 18.9341 28.325V28.9829C18.9341 29.3228 19.214 29.5969 19.561 29.5969Z" fill="black"/>
                <path d="M16.8407 31.6912L17.5124 32.3491C17.6355 32.4697 17.7922 32.5245 17.9602 32.5245C18.1281 32.5245 18.2848 32.4697 18.408 32.3491C18.6542 32.1079 18.6542 31.7241 18.408 31.4829L17.7363 30.825C17.49 30.5837 17.0982 30.5837 16.8519 30.825C16.5944 31.0552 16.5944 31.45 16.8407 31.6912Z" fill="black"/>
                <path d="M19.7514 37.6231C19.9976 37.3819 19.9976 36.9981 19.7514 36.7568C19.5051 36.5156 19.1132 36.5156 18.867 36.7568L18.1953 37.4147C17.949 37.656 17.949 38.0397 18.1953 38.281C18.3184 38.4016 18.4751 38.4564 18.6431 38.4564C18.811 38.4564 18.9677 38.4016 19.0909 38.281L19.7514 37.6231Z" fill="black"/>
                <path d="M18.1729 34.8928V34.2349C18.1729 33.895 17.893 33.6208 17.546 33.6208C17.1989 33.6208 16.9191 33.895 16.9191 34.2349V34.8928C16.9191 35.2327 17.1989 35.5068 17.546 35.5068C17.893 35.5068 18.1729 35.2327 18.1729 34.8928Z" fill="black"/>
                <path d="M22.2366 39.52C21.8896 39.52 21.6097 39.7941 21.6097 40.1341C21.6097 40.474 21.8896 40.7481 22.2366 40.7481H22.9083C23.2553 40.7481 23.5352 40.474 23.5352 40.1341C23.5352 39.7941 23.2553 39.52 22.9083 39.52H22.2366Z" fill="black"/>
                <path opacity="0.85" d="M15.3341 31.9306C14.7301 32.0629 14.0703 32.0188 13.3545 31.6991C11.1066 30.6957 11.1849 28.3362 11.2296 26.4398C11.2631 25.3593 11.2967 24.2346 10.9388 23.4959C10.5809 22.7572 9.59675 22.261 8.53428 21.7318C6.94618 20.9379 4.97782 19.9566 5.00019 17.6412C5.02256 15.1604 7.49418 14.4879 9.29478 13.9917C10.3349 13.705 11.5204 13.3743 11.8559 12.845C12.2138 12.2607 12.3815 11.1912 12.5493 10.1658C12.8736 8.13703 13.265 5.61213 15.6025 5.08289C17.9399 4.55366 19.3938 6.68163 20.5681 8.37959C21.1608 9.2396 21.7759 10.1217 22.3575 10.4965C22.8943 10.8383 24.1022 10.6288 25.1647 10.4524C27.01 10.1327 29.5375 9.70269 30.6335 11.9299C31.6625 14.0138 30.3092 15.7448 29.2244 17.123C28.4974 18.0382 27.8152 18.9092 27.8264 19.7251C27.8264 20.541 28.352 21.5443 28.8441 22.5036C29.7165 24.1905 30.8125 26.2964 29.2244 28.1488C27.6363 29.9901 25.4331 29.1631 23.666 28.5016C22.6371 28.1157 21.5635 27.7188 20.8141 27.8842C20.0648 28.0495 19.2708 28.8655 18.5103 29.6483C17.6379 30.5855 16.5978 31.655 15.3341 31.9306Z" fill="#DB1E46"/>
                <path d="M13.1143 3.83936C12.6877 3.43852 12.3911 3.3529 12.123 3.41162L12.124 3.4126C11.8669 3.46973 11.6414 3.66558 11.4316 4.2085C11.2191 4.75843 11.0739 5.53337 10.9102 6.54053L10.9111 6.5415C10.7259 7.71263 10.5138 9.0788 9.89258 10.0854C9.46979 10.7801 8.8229 11.2302 8.12891 11.5522C7.43992 11.8719 6.66067 12.0863 5.94141 12.2827V12.2817C4.9452 12.5552 4.28572 12.7672 3.87207 13.0073C3.67388 13.1225 3.56276 13.228 3.49902 13.3228C3.43983 13.4108 3.40315 13.5161 3.40137 13.6694C3.39791 14.0379 3.53971 14.3143 3.88574 14.6089C4.16701 14.8483 4.55637 15.076 5.06641 15.3403L5.61816 15.6187L5.62012 15.6196C6.81262 16.2181 8.38661 16.9809 9.11133 18.4849L9.1123 18.4868C9.72173 19.7623 9.6636 21.2379 9.63086 22.5073V22.5083C9.60258 23.5453 9.61289 24.2448 9.73047 24.7349C9.78684 24.9698 9.86289 25.1324 9.9541 25.2515C10.0427 25.3672 10.1627 25.4641 10.3418 25.5444L10.3428 25.5454C10.4982 25.6154 10.6266 25.6331 10.748 25.6206C10.8749 25.6075 11.0265 25.5576 11.2197 25.4429C11.6238 25.2029 12.1079 24.7464 12.7979 24.0327L12.7998 24.0308C13.7322 23.0794 14.8224 21.9229 16.3047 21.5981C17.5984 21.3148 18.8904 21.7127 20.04 22.1333L20.5234 22.313L20.5244 22.314C21.4579 22.6653 22.0925 22.8732 22.5625 22.9194C22.7874 22.9415 22.9474 22.9231 23.0684 22.8813C23.1829 22.8418 23.2895 22.771 23.3994 22.645C23.5248 22.4975 23.5917 22.3604 23.6211 22.2192C23.6513 22.0737 23.6489 21.8941 23.5977 21.6577C23.4908 21.1649 23.1966 20.5284 22.7217 19.603V19.6021C22.1666 18.538 21.5336 17.3221 21.4463 16.0239L21.4365 15.7622C21.4238 14.0892 22.5197 12.7263 23.3457 11.687C23.8853 10.9982 24.2672 10.4885 24.4678 10.0415C24.6525 9.62956 24.6615 9.32139 24.4971 8.98975L24.4951 8.98682C24.4266 8.8466 24.3476 8.76602 24.2559 8.71143C24.1569 8.65262 24.0103 8.60489 23.7803 8.58545C23.2999 8.54489 22.6093 8.63481 21.583 8.80811L21.584 8.80908C20.8497 8.93426 20.0524 9.07224 19.291 9.07666C18.5234 9.08106 17.7434 8.95101 17.0557 8.50342V8.50244C16.0632 7.85426 15.2823 6.72829 14.6025 5.73389C14.0152 4.88766 13.5473 4.24627 13.1143 3.83936ZM24.3262 15.7251C24.3262 16.0359 24.4286 16.4191 24.6133 16.8716C24.7961 17.3195 25.0391 17.7885 25.2881 18.2739L25.6221 18.9282C25.9616 19.6126 26.2978 20.3804 26.4482 21.1704C26.655 22.2561 26.5163 23.4095 25.6035 24.4741L25.6025 24.4751C24.6874 25.5361 23.5756 25.83 22.4814 25.7632C21.4232 25.6985 20.3584 25.2952 19.4902 24.9702C18.9711 24.7755 18.4703 24.5892 18.0098 24.4702C17.5406 24.349 17.1787 24.3159 16.9219 24.3726C16.6668 24.4289 16.3562 24.6105 15.9863 24.9185C15.6232 25.2209 15.2535 25.6009 14.8691 25.9966C14.0189 26.9098 12.8785 28.1048 11.4404 28.4185C10.731 28.5738 9.96237 28.5185 9.15039 28.1558C7.86291 27.581 7.236 26.6013 6.94922 25.5337C6.67131 24.4988 6.70754 23.3586 6.72949 22.4282V22.4243C6.74642 21.8793 6.76279 21.3523 6.73242 20.8716C6.70176 20.3867 6.62602 19.997 6.48926 19.7144C6.36761 19.4633 6.11839 19.215 5.72363 18.9517C5.52734 18.8207 5.30811 18.6947 5.07129 18.5679L4.31152 18.1792C3.53549 17.794 2.5796 17.3237 1.8291 16.6333C1.05747 15.9235 0.487195 14.968 0.5 13.6362C0.513223 12.1881 1.26007 11.2589 2.21191 10.6509C3.13284 10.0627 4.2782 9.75284 5.16211 9.50928C5.6877 9.36441 6.21739 9.2175 6.65625 9.04443C6.87458 8.95834 7.05576 8.87094 7.19434 8.78369C7.33513 8.695 7.40373 8.62344 7.43262 8.57861C7.56594 8.35848 7.68183 8.01306 7.78613 7.55908C7.8894 7.10953 7.97092 6.60346 8.05566 6.08545C8.2152 5.08747 8.40207 3.87902 8.86523 2.85596C9.34002 1.80736 10.1282 0.904047 11.4922 0.595215C12.8575 0.286139 13.9606 0.767952 14.8438 1.51416C15.4909 2.061 16.0439 2.76935 16.5234 3.44189L16.9795 4.09521V4.09619C17.2774 4.52849 17.57 4.9487 17.8574 5.30713C18.1484 5.67005 18.405 5.93201 18.625 6.07471H18.626C18.6735 6.10497 18.7686 6.14173 18.9355 6.1626C19.0982 6.18291 19.2985 6.18419 19.5322 6.16943C20.0022 6.13975 20.5407 6.04888 21.0791 5.95947C21.9871 5.80215 23.1571 5.5982 24.2451 5.74072C25.3677 5.8878 26.4421 6.41079 27.0811 7.7085C27.6699 8.90115 27.5727 10.0055 27.1855 10.9761C26.809 11.92 26.1516 12.7531 25.6172 13.4321L25.6162 13.4341C25.2485 13.897 24.9178 14.3175 24.6777 14.7183C24.4358 15.1222 24.3225 15.4475 24.3262 15.7183V15.7251Z" fill="white" stroke="#DB1E46"/>
                </svg>
