<svg width="39" height="49" viewBox="0 0 39 49" fill="none" xmlns="http://www.w3.org/2000/svg">
                    <path d="M11.2685 1.24536C9.8333 3.46567 8.97992 5.44673 8.47565 7.02583L11.6176 9.9352L14.7499 7.01626C14.2457 5.43716 13.3923 3.46567 11.9571 1.24536C11.7922 1.0061 11.4237 1.0061 11.2685 1.24536Z" fill="#AFDC82"/>
                    <path d="M18.3671 4.33646C15.8263 5.80072 13.7414 7.38939 12.1025 8.83451C11.8019 9.10247 11.3655 9.10247 11.0649 8.83451C9.42597 7.37982 7.341 5.80072 4.80025 4.33646C4.50932 4.17376 4.1796 4.48001 4.32507 4.77669L7.50586 11.1218L11.5788 14.5384L15.6518 11.1218L18.8326 4.77669C18.9877 4.48001 18.658 4.16419 18.3671 4.33646Z" fill="#96CD82"/>
                    <path d="M21.2085 8.14546C17.475 9.70542 14.5463 11.7248 12.5098 13.3996C12.2189 13.6388 11.8019 13.6388 11.511 13.3996C9.4745 11.7248 6.54585 9.70542 2.8123 8.14546C2.48258 8.01148 2.18196 8.39429 2.405 8.66226C3.52992 10.0021 5.5567 12.5382 7.56409 15.6964L11.9959 19.4576L16.4276 15.6964C18.435 12.5478 20.4715 10.0021 21.5867 8.66226C21.8388 8.38472 21.5382 8.0019 21.2085 8.14546Z" fill="#7DBE81"/>
                    <path d="M20.1806 13.5143C16.8931 14.902 14.3136 16.6725 12.5001 18.1559C12.2092 18.3952 11.7922 18.3952 11.5013 18.1559C9.68785 16.6725 7.10831 14.902 3.82084 13.5143C3.49113 13.3708 3.1905 13.7631 3.41355 14.0311C4.50937 15.3327 6.43918 17.7348 8.23322 20.5293L11.9862 22.8549L12.0056 22.8454L12.025 22.8549L15.7779 20.5293C17.5719 17.7348 19.5017 15.3327 20.5976 14.0311C20.8109 13.7631 20.5006 13.3803 20.1806 13.5143Z" fill="#96CD82"/>
                    <path d="M5.63425 19.5342C6.45854 20.5008 7.61255 21.9938 8.49503 23.7451L12.3837 22.9795C12.3837 22.9795 9.41629 20.6348 6.05125 19.027C5.72153 18.8643 5.40151 19.2567 5.63425 19.5342Z" fill="#7DBE81"/>
                    <path d="M19.4338 18.3762C19.4338 18.3762 17.0579 20.6731 15.4966 23.7452L11.6079 22.9795C11.6079 22.9795 15.4966 19.9075 19.4338 18.3762Z" fill="#7DBE81"/>
                    <path d="M22.4983 35.2486C22.4983 42.4551 20.1999 48.293 11.6176 48.293C3.03531 48.293 0.727295 42.4551 0.727295 35.2486C0.727295 28.0422 3.02561 22.2139 11.6079 22.2139C20.1902 22.2139 22.4983 28.0518 22.4983 35.2486Z" fill="#FFA71C"/>
                    <path d="M15.4966 45.2208C6.91432 45.2208 4.616 39.383 4.616 32.1765C4.616 28.6164 5.17846 25.3912 6.78825 23.0369C2.13344 24.8839 0.727295 29.65 0.727295 35.2486C0.727295 42.455 3.02561 48.2929 11.6079 48.2929C15.9524 48.2929 18.6774 46.7999 20.3163 44.3882C18.9877 44.9242 17.407 45.2208 15.4966 45.2208Z" fill="#D98809"/>
                    <path d="M20.8691 25.6197C19.8896 24.2129 18.5902 23.1602 16.9804 22.4711C18.5999 20.2125 19.9284 18.8918 19.9478 18.8727C20.1903 18.6334 20.2291 18.2602 20.0448 17.973C19.8605 17.6859 19.5017 17.5711 19.1817 17.6859C18.8617 17.8008 18.5514 17.9252 18.2411 18.0592C20.2969 15.1977 21.9746 13.5229 21.994 13.4941C22.2364 13.2549 22.2752 12.8816 22.091 12.5945C21.9067 12.3074 21.5479 12.1926 21.2279 12.3074C20.3454 12.6328 19.5211 12.9869 18.7356 13.3506C21.063 10.068 22.9928 8.14434 23.0219 8.1252C23.2644 7.88594 23.3032 7.5127 23.1189 7.22559C22.9347 6.93848 22.5759 6.82363 22.2558 6.93848C20.4812 7.6084 18.9102 8.34531 17.5137 9.10137L20.0351 4.11523C20.1806 3.8377 20.1224 3.49316 19.8896 3.27305C19.6569 3.05293 19.3175 3.00508 19.0363 3.1582C17.6786 3.89512 16.3791 4.67988 15.1572 5.52207C14.459 3.7707 13.4602 2.01934 12.1898 0.29668C12.054 0.114844 11.831 0 11.5982 0C11.3655 0 11.1522 0.105273 11.0067 0.29668C9.73632 2.01934 8.74717 3.7707 8.04895 5.52207C6.91434 4.7373 5.62457 3.94297 4.18933 3.16777C3.90811 3.01465 3.56869 3.0625 3.33595 3.28262C3.10321 3.50273 3.04503 3.8377 3.19049 4.1248L5.43062 8.55586C4.3057 7.99121 3.08382 7.45527 1.75525 6.95762C1.43523 6.84277 1.07643 6.95762 0.892173 7.24473C0.70792 7.53184 0.74671 7.90508 0.989148 8.14434C1.00854 8.16348 2.94805 10.0967 5.27546 13.3793C4.48996 13.0156 3.66567 12.6615 2.78319 12.3361C2.46317 12.2213 2.10436 12.3361 1.92011 12.6232C1.73586 12.9104 1.77465 13.2836 2.01709 13.5229C2.03648 13.542 3.72385 15.2168 5.77003 18.0879C5.45971 17.9635 5.13969 17.8391 4.82937 17.7146C4.50935 17.5998 4.15054 17.7146 3.96629 18.0018C3.78204 18.2889 3.82083 18.6621 4.06327 18.9014C4.07296 18.9109 5.30455 20.1359 6.85615 22.2605C4.97483 22.9305 3.46202 24.0693 2.3662 25.6484C0.766105 27.8879 0 31.0365 0 35.2475C0 39.4584 0.766105 42.607 2.3468 44.8752C4.26691 47.6219 7.37982 49.0096 11.6079 49.0096C15.8361 49.0096 18.9587 47.6219 20.8691 44.8752C22.4498 42.607 23.2159 39.4584 23.2159 35.2475C23.2159 31.0365 22.4498 27.8879 20.8691 25.6197ZM1.80374 30.9695C1.89102 31.0365 1.9783 31.1131 2.06557 31.1896C2.56015 31.6107 3.18079 32.1275 4.35419 32.1275C5.52759 32.1275 6.14824 31.6107 6.64281 31.1896C7.0695 30.8355 7.34103 30.5963 7.98107 30.5963C8.62111 30.5963 8.90233 30.8355 9.31933 31.1896C9.8139 31.6107 10.4345 32.1275 11.6079 32.1275C12.7813 32.1275 13.402 31.6107 13.8966 31.1896C14.3233 30.8355 14.6045 30.5963 15.2348 30.5963C15.8749 30.5963 16.1561 30.8355 16.5731 31.1896C17.0677 31.6107 17.6883 32.1275 18.8617 32.1275C20.0351 32.1275 20.6557 31.6107 21.1503 31.1896C21.2473 31.1131 21.3346 31.0365 21.4218 30.9695C21.5867 31.85 21.6837 32.807 21.7322 33.8406C21.0243 34.0033 20.5782 34.3766 20.2 34.702C19.7733 35.0561 19.492 35.2953 18.8617 35.2953C18.2217 35.2953 17.9404 35.0561 17.5234 34.702C17.0289 34.2809 16.4082 33.7641 15.2348 33.7641C14.0614 33.7641 13.4408 34.2809 12.9462 34.702C12.5195 35.0561 12.2383 35.2953 11.6079 35.2953C10.9679 35.2953 10.6867 35.0561 10.2697 34.702C9.77511 34.2809 9.15447 33.7641 7.98107 33.7641C6.80767 33.7641 6.18703 34.2809 5.69245 34.702C5.26576 35.0561 4.99423 35.2953 4.35419 35.2953C3.71415 35.2953 3.44262 35.0561 3.01593 34.702C2.63773 34.3861 2.19164 34.0033 1.49342 33.8406C1.53221 32.8166 1.63888 31.8596 1.80374 30.9695ZM14.4396 21.7246C15.1863 21.2174 15.9718 20.758 16.7767 20.3273C16.3985 20.8154 15.9815 21.3609 15.5548 21.9734C15.196 21.8777 14.8275 21.7916 14.4396 21.7246ZM15.6421 19.3129C14.459 19.9637 13.3438 20.691 12.2965 21.5045C12.1025 21.4949 11.8989 21.4949 11.7049 21.4949C11.3849 21.2461 11.0455 20.9973 10.7061 20.7676C11.1328 20.3082 11.9765 19.4564 13.2274 18.4516C14.4881 17.4467 16.3694 16.1355 18.8132 14.9393C17.9016 16.0398 16.7767 17.5328 15.6421 19.3129ZM16.03 14.7766C14.3814 15.7336 13.0335 16.7193 11.9861 17.5807C11.5207 17.1979 10.9776 16.7768 10.3764 16.3461C10.7352 15.9346 11.734 14.8627 13.3632 13.5707C14.8081 12.4223 16.9707 10.9102 19.8121 9.55117C18.7744 10.8145 17.4071 12.6232 16.03 14.7766ZM15.1863 10.4795C14.8954 10.6709 14.6142 10.8527 14.3426 11.0441C13.8772 10.5082 13.3244 9.91484 12.6747 9.29277C14.1681 7.98164 15.8264 6.75664 17.6398 5.63691L15.1863 10.4795ZM11.6079 1.98105C12.6068 3.44531 13.3826 4.92871 13.9354 6.40254C13.1208 7.01504 12.345 7.64668 11.6079 8.29746C10.9194 7.68496 10.1436 7.04375 9.27084 6.40254C9.8333 4.92871 10.6091 3.44531 11.6079 1.98105ZM5.57608 5.62734C9.21266 7.8668 11.637 10.1541 13.1596 11.8863C12.7329 12.2021 12.345 12.518 11.9861 12.8146C10.8806 11.9055 9.4454 10.8336 7.68045 9.78086L5.57608 5.62734ZM4.16994 9.5416C7.0792 10.9293 9.31933 12.4988 10.8903 13.7812C9.94967 14.6426 9.37751 15.2934 9.17387 15.5326C8.79566 15.2838 8.38836 15.035 7.96167 14.7861C6.58462 12.6041 5.23667 10.824 4.16994 9.5416ZM5.18818 14.9297C7.63196 16.126 9.53267 17.4467 10.8806 18.5377C10.1921 19.1693 9.72662 19.667 9.46479 19.9637C9.09628 19.734 8.72778 19.5234 8.34958 19.3129C7.20527 17.5232 6.09975 16.0398 5.18818 14.9297ZM7.21496 20.3369C7.97137 20.7293 8.70838 21.1695 9.40661 21.6289C9.0284 21.6768 8.66959 21.7437 8.32048 21.8203C7.93258 21.2652 7.56407 20.7771 7.21496 20.3369ZM11.6079 22.9305C15.1281 22.9305 17.6883 23.9354 19.3563 26.0312C19.2108 26.0695 19.0557 26.0982 18.8617 26.0982C18.6484 26.0982 18.4641 26.0695 18.2992 26.0121C17.921 25.8877 17.504 26.0887 17.378 26.4619C17.2519 26.8352 17.4556 27.2467 17.8338 27.3711C18.1538 27.4764 18.4835 27.5338 18.8617 27.5338C19.4145 27.5338 19.8412 27.4189 20.1709 27.2658C20.5297 27.9262 20.8303 28.6727 21.0727 29.4957C20.7139 29.6775 20.4424 29.9072 20.2 30.1082C19.7733 30.4623 19.492 30.7016 18.8617 30.7016C18.2217 30.7016 17.9404 30.4623 17.5234 30.1082C17.0289 29.6871 16.4082 29.1703 15.2348 29.1703C14.0614 29.1703 13.4408 29.6871 12.9462 30.1082C12.5195 30.4623 12.2383 30.7016 11.6079 30.7016C10.9679 30.7016 10.6964 30.4623 10.2697 30.1082C9.77511 29.6871 9.15447 29.1703 7.98107 29.1703C6.80767 29.1703 6.18703 29.6871 5.69245 30.1082C5.26576 30.4623 4.99423 30.7016 4.35419 30.7016C3.71415 30.7016 3.43293 30.4623 3.01593 30.1082C2.77349 29.8977 2.50196 29.6775 2.15285 29.4957C2.38559 28.6727 2.68622 27.9357 3.05472 27.2658C3.39414 27.4189 3.81113 27.5338 4.36389 27.5338C5.53729 27.5338 6.15793 27.017 6.65251 26.5959C7.0792 26.2418 7.35073 26.0025 7.99077 26.0025C8.6308 26.0025 8.90233 26.2418 9.32903 26.5959C9.8236 27.017 10.4442 27.5338 11.6176 27.5338C12.791 27.5338 13.4117 27.017 13.9063 26.5959C14.333 26.2418 14.6045 26.0025 15.2445 26.0025C15.6421 26.0025 15.9718 25.6771 15.9718 25.2848C15.9718 24.8924 15.6421 24.567 15.2445 24.567C14.0711 24.567 13.4505 25.0838 12.9559 25.5049C12.5292 25.859 12.2577 26.0982 11.6176 26.0982C10.9776 26.0982 10.7061 25.859 10.2794 25.5049C9.78481 25.0838 9.16417 24.567 7.99077 24.567C6.81737 24.567 6.19672 25.0838 5.70215 25.5049C5.27546 25.859 5.00393 26.0982 4.36389 26.0982C4.16994 26.0982 4.00508 26.0791 3.86932 26.0312C5.52759 23.9354 8.08774 22.9305 11.6079 22.9305ZM5.25606 45.8227C5.8767 45.6408 6.2937 45.2963 6.64281 44.9996C7.0695 44.6455 7.34103 44.4062 7.98107 44.4062C8.62111 44.4062 8.90233 44.6455 9.31933 44.9996C9.8139 45.4207 10.4345 45.9375 11.6079 45.9375C12.7813 45.9375 13.402 45.4207 13.8966 44.9996C14.3233 44.6455 14.6045 44.4062 15.2348 44.4062C15.8749 44.4062 16.1561 44.6455 16.5731 44.9996C16.9222 45.2963 17.3392 45.6408 17.9598 45.8227C16.3694 46.9998 14.2651 47.574 11.6079 47.574C8.96052 47.574 6.84646 46.9998 5.25606 45.8227ZM19.3951 44.435C19.2399 44.4828 19.0653 44.5115 18.8617 44.5115C18.2217 44.5115 17.9404 44.2723 17.5234 43.9182C17.0289 43.4971 16.4082 42.9803 15.2348 42.9803C14.0614 42.9803 13.4408 43.4971 12.9462 43.9182C12.5195 44.2723 12.2383 44.5115 11.6079 44.5115C10.9679 44.5115 10.6867 44.2723 10.2697 43.9182C9.77511 43.4971 9.15447 42.9803 7.98107 42.9803C6.80767 42.9803 6.18703 43.4971 5.69245 43.9182C5.26576 44.2723 4.99423 44.5115 4.35419 44.5115C4.16024 44.5115 3.99538 44.4924 3.84022 44.4445H3.83053C2.97714 43.3631 2.3565 41.9945 1.9686 40.3197C1.99769 40.3484 2.03648 40.3772 2.06557 40.4059C2.56015 40.827 3.18079 41.3438 4.35419 41.3438C4.52875 41.3438 4.69361 41.3342 4.85846 41.3055C5.25606 41.248 5.52759 40.8844 5.46941 40.492C5.41122 40.0996 5.04272 39.8316 4.64512 39.8891C4.55784 39.8986 4.46087 39.9082 4.35419 39.9082C3.71415 39.9082 3.43293 39.6689 3.01593 39.3148C2.67652 39.0277 2.26922 38.6832 1.64858 38.5014C1.52251 37.5348 1.46433 36.4916 1.46433 35.3623C1.67767 35.4676 1.85223 35.6207 2.07527 35.8025C2.56985 36.2236 3.19049 36.7404 4.36389 36.7404C5.53729 36.7404 6.15793 36.2236 6.65251 35.8025C7.0792 35.4484 7.35073 35.2092 7.99077 35.2092C8.6308 35.2092 8.90233 35.4484 9.32903 35.8025C9.8236 36.2236 10.4442 36.7404 11.6176 36.7404C12.791 36.7404 13.4117 36.2236 13.9063 35.8025C14.333 35.4484 14.6045 35.2092 15.2445 35.2092C15.8846 35.2092 16.1658 35.4484 16.5828 35.8025C17.0774 36.2236 17.698 36.7404 18.8714 36.7404C20.0448 36.7404 20.6654 36.2236 21.16 35.8025C21.3831 35.6207 21.5576 35.4676 21.771 35.3623C21.771 36.4916 21.7031 37.5348 21.5867 38.5014C20.9661 38.6832 20.5491 39.0277 20.2097 39.3148C19.783 39.6689 19.5017 39.9082 18.8714 39.9082C18.2314 39.9082 17.9501 39.6689 17.5331 39.3148C17.0386 38.8938 16.4179 38.377 15.2445 38.377C14.0711 38.377 13.4505 38.8938 12.9559 39.3148C12.5292 39.6689 12.2577 39.9082 11.6176 39.9082C10.9776 39.9082 10.7061 39.6689 10.2794 39.3148C9.78481 38.8938 9.16417 38.377 7.99077 38.377C7.69984 38.377 7.42831 38.4057 7.16648 38.4727C6.77857 38.5684 6.54583 38.9607 6.64281 39.3436C6.73978 39.7264 7.13738 39.9561 7.52528 39.8604C7.66105 39.8221 7.81621 39.8125 7.98107 39.8125C8.62111 39.8125 8.89264 40.0518 9.31933 40.4059C9.8139 40.827 10.4345 41.3438 11.6079 41.3438C12.7813 41.3438 13.402 40.827 13.8966 40.4059C14.3233 40.0518 14.5948 39.8125 15.2348 39.8125C15.8749 39.8125 16.1561 40.0518 16.5731 40.4059C17.0677 40.827 17.6883 41.3438 18.8617 41.3438C20.0351 41.3438 20.6557 40.827 21.1503 40.4059C21.1891 40.3772 21.2182 40.3484 21.257 40.3197C20.8691 41.9754 20.2484 43.3535 19.3951 44.435Z" fill="black"/>
                    <path opacity="0.9" d="M34.9774 20.6275C34.8805 20.2033 34.4346 19.9451 33.9984 20.0373L33.2424 20.2033C32.9128 18.8568 32.4088 17.0031 31.8757 15.9333C31.8757 15.9333 31.8757 15.924 31.866 15.924C30.286 12.567 27.8337 11.0269 24.0534 11.0177C23.9274 11.0084 23.7917 11.0084 23.6463 11.0177C23.5785 11.0177 23.5106 11.0269 23.4428 11.0269C23.3361 11.0269 23.2295 11.0361 23.1229 11.0453C23.0744 11.0453 23.0357 11.0545 22.9872 11.0638C19.7982 11.3404 16.0664 12.4933 15.4557 12.6777C15.4267 12.6869 15.3976 12.6962 15.3685 12.7054C11.3944 14.2363 9.62056 16.6895 9.68841 20.6183C9.68841 20.6367 9.68841 20.6552 9.68841 20.6736C9.69811 22.0847 10.0567 23.8554 10.3669 25.1281L9.63995 25.2849C9.19407 25.3771 8.92267 25.8014 9.0196 26.2164C9.11653 26.6406 9.56241 26.8988 9.99859 26.8066L10.7643 26.6406C10.774 26.659 10.774 26.6775 10.7837 26.6867C10.8031 26.742 10.8128 26.7789 10.8128 26.7789C11.0164 27.443 11.2393 28.0609 11.4719 28.6142C11.4816 28.6327 11.4816 28.6419 11.4913 28.6603C13.0713 32.3493 15.6011 34.0186 19.614 34.0094C19.614 34.0094 23.5106 34.1201 28.1148 32.3401C28.1342 32.3309 28.1632 32.3309 28.1826 32.3217C28.4153 32.2294 28.6479 32.1372 28.8708 32.0358C28.8805 32.0358 28.8902 32.0265 28.8999 32.0265C28.9096 32.0173 28.929 32.0173 28.9387 32.0081C29.0841 31.9435 29.2198 31.879 29.3361 31.8144C32.6802 30.1636 34.076 27.6551 33.8336 23.7908C33.8336 23.7724 33.8336 23.7632 33.8336 23.7447C33.7949 23.1545 33.7173 22.5181 33.601 21.8449C33.601 21.8449 33.601 21.8357 33.5913 21.8172C33.5913 21.7896 33.5816 21.7619 33.5816 21.7342L34.3474 21.5682C34.8029 21.4668 35.084 21.0425 34.9774 20.6275Z" fill="#DB1E46"/>
                    <mask id="path-11-outside-1_1_1748" maskUnits="userSpaceOnUse" x="11" y="6.0083" width="28" height="27" fill="black">
                    <rect fill="white" x="11" y="6.0083" width="28" height="27"/>
                    <path fill-rule="evenodd" clip-rule="evenodd" d="M33.5776 13.271C33.7328 13.6463 34.1304 13.8484 34.5183 13.7618C34.5571 13.7522 34.6056 13.7329 34.6541 13.7137C35.0808 13.5501 35.2844 13.0689 35.1099 12.6552C33.4128 8.49806 30.6489 6.76593 26.1395 7.03538C25.6837 7.06425 25.3346 7.44916 25.3637 7.90144C25.3928 8.35372 25.7807 8.70014 26.2365 8.67127C30.0283 8.44032 32.1521 9.77791 33.5776 13.271ZM13.7264 18.4193C13.6876 18.4289 13.6391 18.4385 13.5906 18.4385C13.1349 18.4674 12.7469 18.121 12.7179 17.6687C12.4463 13.194 14.1919 10.4515 18.3813 8.7675C18.7983 8.59429 19.2832 8.79637 19.4481 9.21978C19.6226 9.63357 19.419 10.1147 18.9923 10.2783C15.472 11.6929 14.124 13.8003 14.3568 17.5629C14.3859 17.9766 14.1046 18.3327 13.7264 18.4193ZM13.7673 23.3089L12.9991 23.4809C12.553 23.5772 12.1166 23.3077 12.0196 22.8651C11.9226 22.4224 12.1942 21.9894 12.6403 21.8932L35.3787 16.8003C35.411 16.7894 35.4442 16.7805 35.4784 16.7738C35.4992 16.7697 35.52 16.7665 35.5408 16.764L37.0009 16.437C37.447 16.3407 37.8834 16.6102 37.9804 17.0528C38.0774 17.4955 37.8058 17.9285 37.3597 18.0247L36.597 18.1956C36.7255 18.9409 36.8097 19.6449 36.8458 20.2957V20.3439C37.1173 24.7993 35.3717 27.5514 31.1823 29.2354C31.1435 29.2643 31.1047 29.2739 31.0562 29.2835C30.6683 29.3702 30.2707 29.1681 30.1156 28.7928C29.941 28.379 30.1446 27.8978 30.5616 27.7246C34.0625 26.3101 35.4105 24.2123 35.2069 20.4882V20.4401C35.1722 19.8616 35.0977 19.2289 34.9871 18.5562L15.3758 22.9486C15.5611 23.5927 15.7612 24.1799 15.9763 24.703C15.986 24.7223 15.9957 24.7415 15.9957 24.7608C17.4115 28.2443 19.545 29.5819 23.3368 29.3605C23.7926 29.3317 24.1806 29.6781 24.1999 30.1304C24.229 30.5249 23.9575 30.881 23.5696 30.9676L23.5489 30.9717C23.5096 30.9798 23.4752 30.9868 23.4338 30.9868C18.9438 31.237 16.1799 29.5241 14.4925 25.4248L14.4886 25.4175L14.4849 25.411C14.4783 25.3997 14.4731 25.3907 14.4731 25.3767C14.2172 24.7599 13.9833 24.0665 13.7673 23.3089Z"/>
                    </mask>
                    <path fill-rule="evenodd" clip-rule="evenodd" d="M33.5776 13.271C33.7328 13.6463 34.1304 13.8484 34.5183 13.7618C34.5571 13.7522 34.6056 13.7329 34.6541 13.7137C35.0808 13.5501 35.2844 13.0689 35.1099 12.6552C33.4128 8.49806 30.6489 6.76593 26.1395 7.03538C25.6837 7.06425 25.3346 7.44916 25.3637 7.90144C25.3928 8.35372 25.7807 8.70014 26.2365 8.67127C30.0283 8.44032 32.1521 9.77791 33.5776 13.271ZM13.7264 18.4193C13.6876 18.4289 13.6391 18.4385 13.5906 18.4385C13.1349 18.4674 12.7469 18.121 12.7179 17.6687C12.4463 13.194 14.1919 10.4515 18.3813 8.7675C18.7983 8.59429 19.2832 8.79637 19.4481 9.21978C19.6226 9.63357 19.419 10.1147 18.9923 10.2783C15.472 11.6929 14.124 13.8003 14.3568 17.5629C14.3859 17.9766 14.1046 18.3327 13.7264 18.4193ZM13.7673 23.3089L12.9991 23.4809C12.553 23.5772 12.1166 23.3077 12.0196 22.8651C11.9226 22.4224 12.1942 21.9894 12.6403 21.8932L35.3787 16.8003C35.411 16.7894 35.4442 16.7805 35.4784 16.7738C35.4992 16.7697 35.52 16.7665 35.5408 16.764L37.0009 16.437C37.447 16.3407 37.8834 16.6102 37.9804 17.0528C38.0774 17.4955 37.8058 17.9285 37.3597 18.0247L36.597 18.1956C36.7255 18.9409 36.8097 19.6449 36.8458 20.2957V20.3439C37.1173 24.7993 35.3717 27.5514 31.1823 29.2354C31.1435 29.2643 31.1047 29.2739 31.0562 29.2835C30.6683 29.3702 30.2707 29.1681 30.1156 28.7928C29.941 28.379 30.1446 27.8978 30.5616 27.7246C34.0625 26.3101 35.4105 24.2123 35.2069 20.4882V20.4401C35.1722 19.8616 35.0977 19.2289 34.9871 18.5562L15.3758 22.9486C15.5611 23.5927 15.7612 24.1799 15.9763 24.703C15.986 24.7223 15.9957 24.7415 15.9957 24.7608C17.4115 28.2443 19.545 29.5819 23.3368 29.3605C23.7926 29.3317 24.1806 29.6781 24.1999 30.1304C24.229 30.5249 23.9575 30.881 23.5696 30.9676L23.5489 30.9717C23.5096 30.9798 23.4752 30.9868 23.4338 30.9868C18.9438 31.237 16.1799 29.5241 14.4925 25.4248L14.4886 25.4175L14.4849 25.411C14.4783 25.3997 14.4731 25.3907 14.4731 25.3767C14.2172 24.7599 13.9833 24.0665 13.7673 23.3089Z" fill="white"/>
                    <path d="M34.5183 13.7618L34.7362 14.7378L34.7477 14.7352L34.7591 14.7324L34.5183 13.7618ZM33.5776 13.271L32.6518 13.6489L32.6535 13.6531L33.5776 13.271ZM34.6541 13.7137L34.2961 12.7799L34.2852 12.7842L34.6541 13.7137ZM35.1099 12.6552L34.184 13.0331L34.1885 13.0438L35.1099 12.6552ZM26.1395 7.03538L26.0798 6.03715L26.0763 6.03738L26.1395 7.03538ZM25.3637 7.90144L26.3616 7.83725V7.83724L25.3637 7.90144ZM26.2365 8.67127L26.1757 7.67312L26.1732 7.67327L26.2365 8.67127ZM13.5906 18.4385V17.4385H13.559L13.5274 17.4405L13.5906 18.4385ZM13.7264 18.4193L13.5032 17.4445L13.4944 17.4465L13.4856 17.4487L13.7264 18.4193ZM12.7179 17.6687L11.7197 17.7293L11.7199 17.7329L12.7179 17.6687ZM18.3813 8.7675L18.7543 9.69541L18.7649 9.691L18.3813 8.7675ZM19.4481 9.21978L18.5162 9.58261L18.5213 9.59561L18.5267 9.60847L19.4481 9.21978ZM18.9923 10.2783L18.6343 9.34457L18.6268 9.34743L18.6194 9.35041L18.9923 10.2783ZM14.3568 17.5629L13.3586 17.6246L13.3592 17.633L14.3568 17.5629ZM12.9991 23.4809L13.2099 24.4585L13.2176 24.4568L12.9991 23.4809ZM13.7673 23.3089L14.729 23.0347L14.4701 22.1267L13.5488 22.333L13.7673 23.3089ZM12.0196 22.8651L12.9964 22.6511H12.9964L12.0196 22.8651ZM12.6403 21.8932L12.8511 22.8707L12.8588 22.869L12.6403 21.8932ZM35.3787 16.8003L35.5973 17.7761L35.6483 17.7647L35.6978 17.748L35.3787 16.8003ZM35.4784 16.7738L35.2878 15.7921L35.2837 15.7929L35.4784 16.7738ZM35.5408 16.764L35.659 17.757L35.7096 17.751L35.7593 17.7398L35.5408 16.764ZM37.0009 16.437L36.7901 15.4594L36.7824 15.4611L37.0009 16.437ZM37.3597 18.0247L37.1489 17.0472L37.1412 17.0489L37.3597 18.0247ZM36.597 18.1956L36.3784 17.2198L35.4499 17.4277L35.6115 18.3655L36.597 18.1956ZM36.8458 20.2957H37.8458V20.2681L37.8442 20.2405L36.8458 20.2957ZM36.8458 20.3439H35.8458V20.3743L35.8476 20.4047L36.8458 20.3439ZM31.1823 29.2354L30.8093 28.3076L30.6892 28.3559L30.5853 28.4332L31.1823 29.2354ZM31.0562 29.2835L30.8616 28.3027L30.8499 28.305L30.8383 28.3076L31.0562 29.2835ZM30.1156 28.7928L31.0397 28.4107L31.0369 28.4041L30.1156 28.7928ZM30.5616 27.7246L30.187 26.7974L30.178 26.8011L30.5616 27.7246ZM35.2069 20.4882H34.2069V20.5155L34.2083 20.5428L35.2069 20.4882ZM35.2069 20.4401H36.2069V20.4101L36.2051 20.3802L35.2069 20.4401ZM34.9871 18.5562L35.9739 18.3939L35.802 17.3489L34.7685 17.5803L34.9871 18.5562ZM15.3758 22.9486L15.1572 21.9728L14.1213 22.2048L14.4148 23.225L15.3758 22.9486ZM15.9763 24.703L15.0514 25.0832L15.066 25.1187L15.0832 25.153L15.9763 24.703ZM15.9957 24.7608H14.9957V24.9562L15.0693 25.1373L15.9957 24.7608ZM23.3368 29.3605L23.3951 30.3589L23.4001 30.3585L23.3368 29.3605ZM24.1999 30.1304L23.2009 30.1732L23.2015 30.1886L23.2027 30.2039L24.1999 30.1304ZM23.5696 30.9676L23.7679 31.9477L23.7777 31.9457L23.7875 31.9435L23.5696 30.9676ZM23.5489 30.9717L23.3507 29.9916L23.3487 29.992L23.5489 30.9717ZM23.4338 30.9868V29.9868H23.406L23.3782 29.9884L23.4338 30.9868ZM14.4925 25.4248L15.4173 25.0441L15.3983 24.998L15.3748 24.954L14.4925 25.4248ZM14.4886 25.4175L15.3709 24.9467L15.3636 24.933L15.3558 24.9195L14.4886 25.4175ZM14.4849 25.411L15.3521 24.913L15.3492 24.9081L14.4849 25.411ZM14.4731 25.3767H15.4731V25.1774L15.3968 24.9934L14.4731 25.3767ZM34.3004 12.7858C34.3838 12.7672 34.47 12.8121 34.5018 12.8889L32.6535 13.6531C32.9956 14.4806 33.877 14.9296 34.7362 14.7378L34.3004 12.7858ZM34.2852 12.7842C34.2725 12.7892 34.2634 12.7928 34.255 12.7961C34.2468 12.7993 34.242 12.8011 34.2392 12.8021C34.2363 12.8032 34.238 12.8025 34.243 12.8009C34.2457 12.8 34.2499 12.7987 34.2554 12.7971C34.2609 12.7956 34.2683 12.7935 34.2775 12.7912L34.7591 14.7324C34.8779 14.7029 34.9971 14.6534 35.023 14.6431L34.2852 12.7842ZM34.1885 13.0438C34.1419 12.9334 34.1984 12.8174 34.2961 12.7799L35.0121 14.6474C35.9631 14.2828 36.4269 13.2045 36.0312 12.2665L34.1885 13.0438ZM26.1991 8.0336C28.3164 7.90709 29.9095 8.25652 31.1484 9.03273C32.3866 9.80851 33.3884 11.0842 34.184 13.0331L36.0357 12.2772C35.1342 10.069 33.9056 8.40009 32.2102 7.3379C30.5156 6.27613 28.472 5.89422 26.0798 6.03716L26.1991 8.0336ZM26.3616 7.83724C26.3693 7.95662 26.2781 8.0286 26.2027 8.03338L26.0763 6.03738C25.0893 6.09989 24.2999 6.94171 24.3657 7.96563L26.3616 7.83724ZM26.1732 7.67327C26.274 7.66689 26.3556 7.74451 26.3616 7.83725L24.3657 7.96563C24.4299 8.96292 25.2873 9.73339 26.2997 9.66927L26.1732 7.67327ZM34.5035 12.8932C33.7441 11.0324 32.7474 9.61927 31.3258 8.7275C29.9046 7.836 28.1937 7.55021 26.1757 7.67312L26.2973 9.66942C28.071 9.56139 29.3179 9.82891 30.263 10.4217C31.2076 11.0143 31.9856 12.0165 32.6518 13.6489L34.5035 12.8932ZM13.5906 19.4385C13.7594 19.4385 13.8998 19.4066 13.9672 19.3899L13.4856 17.4487C13.4843 17.449 13.4926 17.4469 13.5074 17.4446C13.5215 17.4424 13.5506 17.4385 13.5906 17.4385V19.4385ZM11.7199 17.7329C11.7841 18.7302 12.6415 19.5007 13.6539 19.4365L13.5274 17.4405C13.6282 17.4342 13.7098 17.5118 13.7158 17.6045L11.7199 17.7329ZM18.0084 7.83966C15.7861 8.73293 14.1045 9.95095 13.033 11.6348C11.9611 13.3195 11.5754 15.3517 11.7197 17.7293L13.716 17.6081C13.5888 15.511 13.9401 13.9347 14.7204 12.7085C15.5012 11.4813 16.7871 10.4861 18.7543 9.69535L18.0084 7.83966ZM20.3799 8.85695C20.0089 7.90397 18.9261 7.45837 17.9977 7.844L18.7649 9.691C18.6705 9.73022 18.5575 9.68878 18.5162 9.58261L20.3799 8.85695ZM19.3503 11.212C20.3013 10.8474 20.7651 9.76908 20.3694 8.83109L18.5267 9.60847C18.4801 9.49805 18.5366 9.38201 18.6343 9.34457L19.3503 11.212ZM15.3549 17.5011C15.2462 15.7445 15.5152 14.5118 16.1105 13.5774C16.7068 12.6415 17.7171 11.8684 19.3651 11.2062L18.6194 9.35041C16.7472 10.1027 15.3234 11.0906 14.4238 12.5028C13.5232 13.9163 13.2346 15.6186 13.3587 17.6246L15.3549 17.5011ZM13.9496 19.3941C14.7962 19.2002 15.4188 18.4101 15.3543 17.4927L13.3592 17.633C13.3529 17.5432 13.413 17.4652 13.5032 17.4445L13.9496 19.3941ZM13.2176 24.4568L13.9859 24.2847L13.5488 22.333L12.7805 22.5051L13.2176 24.4568ZM11.0428 23.0791C11.2627 24.0829 12.2484 24.6659 13.2099 24.4584L12.7882 22.5034C12.8229 22.4959 12.8677 22.5016 12.9086 22.5272C12.9509 22.5537 12.9852 22.5997 12.9964 22.6511L11.0428 23.0791ZM12.4294 20.9156C11.432 21.1308 10.8296 22.106 11.0428 23.0791L12.9964 22.6511C13.0054 22.6918 12.998 22.7419 12.9705 22.7853C12.9423 22.8297 12.8966 22.8609 12.8511 22.8707L12.4294 20.9156ZM35.1602 15.8245L12.4217 20.9173L12.8588 22.869L35.5973 17.7761L35.1602 15.8245ZM35.2837 15.7929C35.2072 15.8081 35.1324 15.8281 35.0597 15.8526L35.6978 17.748C35.6896 17.7508 35.6813 17.753 35.673 17.7546L35.2837 15.7929ZM35.4226 15.771C35.3776 15.7764 35.3327 15.7834 35.2878 15.7921L35.669 17.7554C35.6658 17.7561 35.6624 17.7566 35.659 17.757L35.4226 15.771ZM36.7824 15.4611L35.3222 15.7882L35.7593 17.7398L37.2195 17.4128L36.7824 15.4611ZM38.9572 16.8388C38.7373 15.835 37.7516 15.252 36.7901 15.4595L37.2118 17.4145C37.1771 17.422 37.1323 17.4163 37.0914 17.3907C37.0491 17.3642 37.0148 17.3182 37.0036 17.2668L38.9572 16.8388ZM37.5706 19.0023C38.568 18.7871 39.1704 17.8119 38.9572 16.8388L37.0036 17.2668C36.9946 17.2261 37.002 17.176 37.0295 17.1326C37.0577 17.0882 37.1034 17.057 37.1489 17.0472L37.5706 19.0023ZM36.8156 19.1714L37.5783 19.0006L37.1412 17.0489L36.3784 17.2198L36.8156 19.1714ZM37.8442 20.2405C37.8057 19.5446 37.7162 18.8018 37.5825 18.0257L35.6115 18.3655C35.7347 19.08 35.8138 19.7452 35.8473 20.351L37.8442 20.2405ZM37.8458 20.3439V20.2957H35.8458V20.3439H37.8458ZM31.5553 30.1633C33.7783 29.2697 35.4595 28.0491 36.5306 26.3658C37.6023 24.6815 37.9883 22.6519 37.8439 20.283L35.8476 20.4047C35.9748 22.4912 35.6238 24.0654 34.8432 25.2921C34.0621 26.5197 32.7757 27.5172 30.8093 28.3076L31.5553 30.1633ZM31.2509 30.2644C31.3172 30.2513 31.5486 30.2094 31.7794 30.0376L30.5853 28.4332C30.6571 28.3798 30.7301 28.3447 30.7924 28.3229C30.8432 28.3051 30.8809 28.2989 30.8616 28.3027L31.2509 30.2644ZM29.1914 29.1749C29.5335 30.0023 30.4149 30.4514 31.2741 30.2595L30.8383 28.3076C30.9217 28.289 31.0079 28.3338 31.0397 28.4107L29.1914 29.1749ZM30.178 26.8011C29.2633 27.1811 28.7982 28.2427 29.1942 29.1815L31.0369 28.4041C31.0838 28.5153 31.026 28.6146 30.9452 28.6481L30.178 26.8011ZM34.2083 20.5428C34.3033 22.2794 34.0291 23.5022 33.432 24.4322C32.8337 25.364 31.8256 26.1354 30.187 26.7975L30.9363 28.6518C32.7985 27.8993 34.2149 26.9145 35.1149 25.5128C36.0161 24.1093 36.3141 22.4211 36.2054 20.4336L34.2083 20.5428ZM34.2069 20.4401V20.4882H36.2069V20.4401H34.2069ZM34.0004 18.7184C34.1065 19.3641 34.1764 19.9621 34.2087 20.5L36.2051 20.3802C36.1679 19.7612 36.0889 19.0938 35.9739 18.3939L34.0004 18.7184ZM15.5944 23.9244L35.2057 19.532L34.7685 17.5803L15.1572 21.9728L15.5944 23.9244ZM16.9012 24.3229C16.7028 23.8401 16.5141 23.2886 16.3368 22.6722L14.4148 23.225C14.608 23.8969 14.8197 24.5197 15.0514 25.0832L16.9012 24.3229ZM16.9957 24.7608C16.9957 24.5861 16.9522 24.4504 16.925 24.3784C16.8994 24.3106 16.8693 24.2531 16.8693 24.2531L15.0832 25.153C15.0929 25.1722 15.0725 25.134 15.0542 25.0855C15.0343 25.0327 14.9957 24.9163 14.9957 24.7608H16.9957ZM23.2786 28.3622C21.5043 28.4658 20.2537 28.1963 19.3063 27.6026C18.3602 27.0097 17.5827 26.0097 16.9221 24.3843L15.0693 25.1373C15.8245 26.9954 16.8217 28.4059 18.2443 29.2973C19.6655 30.188 21.3775 30.4766 23.3951 30.3588L23.2786 28.3622ZM25.199 30.0875C25.1553 29.0683 24.2813 28.2987 23.2736 28.3625L23.4001 30.3585C23.304 30.3646 23.2058 30.2879 23.2009 30.1732L25.199 30.0875ZM23.7875 31.9435C24.6449 31.7521 25.2639 30.9609 25.1972 30.0568L23.2027 30.2039C23.1942 30.0889 23.2701 30.0098 23.3517 29.9916L23.7875 31.9435ZM23.7472 31.9519L23.7679 31.9477L23.3713 29.9874L23.3507 29.9916L23.7472 31.9519ZM23.4338 31.9868C23.59 31.9868 23.7179 31.9579 23.7492 31.9515L23.3487 29.992C23.3376 29.9943 23.3348 29.9948 23.3332 29.9951C23.3325 29.9953 23.3375 29.9943 23.346 29.993C23.3651 29.9902 23.3959 29.9868 23.4338 29.9868V31.9868ZM13.5678 25.8054C14.4659 27.9872 15.6935 29.6354 17.3843 30.6862C19.0731 31.7358 21.1088 32.1179 23.4895 31.9853L23.3782 29.9884C21.2688 30.1059 19.6775 29.7567 18.4401 28.9875C17.2045 28.2197 16.2066 26.9617 15.4173 25.0441L13.5678 25.8054ZM13.6064 25.8883L13.6103 25.8956L15.3748 24.954L15.3709 24.9467L13.6064 25.8883ZM13.6177 25.9089L13.6214 25.9154L15.3558 24.9195L15.3521 24.913L13.6177 25.9089ZM13.4731 25.3767C13.4731 25.6885 13.6174 25.9085 13.6206 25.9139L15.3492 24.9081C15.3381 24.8889 15.3766 24.9509 15.4074 25.0295C15.4472 25.1308 15.4731 25.2486 15.4731 25.3767H13.4731ZM12.8056 23.583C13.0293 24.3675 13.2752 25.0989 13.5495 25.7599L15.3968 24.9934C15.1592 24.4208 14.9373 23.7655 14.729 23.0347L12.8056 23.583Z" fill="#DB1E46" mask="url(#path-11-outside-1_1_1748)"/>
                    </svg>