<svg width="59" height="50" viewBox="0 0 59 50" fill="none" xmlns="http://www.w3.org/2000/svg">
<path d="M1.30204 7.8781C-0.19491 23.8779 8.25856 21.9168 11.0924 26.8648C10.7454 19.3482 6.51019 11.2181 6.44416 11.0925C6.80088 11.5118 7.15478 11.9327 7.50586 12.3551C11.0449 16.6152 12.9089 22.0201 12.6591 27.5267C12.3226 34.9041 15.8563 42.2466 22.5678 46.5337C32.7025 53.0089 46.1502 50.1492 52.6757 40.1243C55.3557 36.0236 56.5345 31.141 56.0161 26.2875C55.2922 27.0307 54.4883 27.6937 53.6186 28.2647C53.678 31.9458 52.6458 35.5637 50.649 38.6729C44.9723 47.5304 33.1003 50.1768 24.1175 44.5836C18.0289 40.7909 14.8295 34.1849 15.1607 27.558V27.5491C15.2191 26.389 15.3856 25.2367 15.6583 24.1068C15.7164 23.8607 15.7803 23.6166 15.85 23.372C23.612 6.84333 0.315868 0.0891861 0.00369625 0C0.00250401 0.000439848 0.00119224 0.000439848 0 0C0 0 1.81282 2.41793 1.30204 7.8781Z" fill="#3AAA35"/>
<path d="M24.984 43.2274C27.7974 44.9862 31.0599 45.9173 34.3898 45.9118C40.2323 45.9051 45.9449 43.0308 49.2917 37.7912C50.9548 35.1973 51.8899 32.2135 52.0014 29.1454C47.4894 32.2789 40.3279 31.1795 31.4218 24.998C25.3236 20.7661 20.9262 20.8255 18.0723 21.9166C14.8809 29.5913 17.6329 38.6492 24.984 43.2274Z" fill="#F45604"/>
<path d="M41.1274 23.8778C41.1274 23.8778 44.9348 20.1356 42.412 15.2924C39.8893 10.4493 36.813 12.9976 39.5888 16.4086C42.8832 20.4569 41.1274 23.8778 41.1274 23.8778Z" fill="#F45604"/>
<path d="M38.4922 26.9838C38.7035 27.1295 38.9214 27.2686 39.1461 27.4011C39.5603 27.6474 39.9881 27.8706 40.4275 28.0697C41.5222 28.5673 42.6825 28.9098 43.8741 29.0873C49.3606 29.9004 54.9597 27.0933 57.3894 21.8627C59.3597 17.6261 60.0928 11.3856 56.22 9.31298C55.1572 8.74397 54.0142 8.8222 52.8563 9.40843C50.1788 10.7645 47.42 14.8295 45.3716 19.8865C43.3633 24.846 40.6642 26.529 38.4922 26.9838Z" fill="#F45604"/>
<path d="M44.5179 16.8588C44.5179 16.8588 49.5359 9.66967 44.3034 3.84963C39.071 -1.97042 34.6298 3.30669 39.7022 7.05876C45.719 11.5092 44.5179 16.8588 44.5179 16.8588Z" fill="#F45604"/>
<path d="M35.2616 24.2203C36.6947 23.9906 37.6679 22.6572 37.4353 21.2421C37.2027 19.8271 35.8523 18.8661 34.4192 19.0958C32.986 19.3255 32.0128 20.6589 32.2454 22.074C32.4781 23.4891 33.8284 24.45 35.2616 24.2203Z" fill="#F45604"/>
<path d="M35.9787 14.0851C36.3445 13.2133 35.9252 12.2138 35.0422 11.8527C34.1593 11.4916 33.1471 11.9056 32.7813 12.7774C32.4156 13.6492 32.8349 14.6487 33.7178 15.0098C34.6008 15.3709 35.613 14.9569 35.9787 14.0851Z" fill="#F45604"/>
<path d="M28.3945 21.6185C29.3406 21.4958 30.0069 20.639 29.8826 19.7048C29.7584 18.7706 28.8907 18.1127 27.9446 18.2354C26.9984 18.3581 26.3322 19.2148 26.4564 20.149C26.5806 21.0833 27.4483 21.7411 28.3945 21.6185Z" fill="#F45604"/>
<path d="M40.6635 43.2123C41.4441 43.2123 42.077 42.5874 42.077 41.8166C42.077 41.0458 41.4441 40.4209 40.6635 40.4209C39.8828 40.4209 39.25 41.0458 39.25 41.8166C39.25 42.5874 39.8828 43.2123 40.6635 43.2123Z" fill="#DB1B4A"/>
<path d="M36.1112 42.3686C36.6558 42.3686 37.0973 41.9327 37.0973 41.3949C37.0973 40.8571 36.6558 40.4211 36.1112 40.4211C35.5665 40.4211 35.125 40.8571 35.125 41.3949C35.125 41.9327 35.5665 42.3686 36.1112 42.3686Z" fill="#DB1B4A"/>
<path d="M37.2885 38.3242C37.7405 38.2188 38.0204 37.7716 37.9138 37.3253C37.8071 36.879 37.3542 36.6026 36.9022 36.708C36.4502 36.8133 36.1702 37.2605 36.2769 37.7068C36.3836 38.1531 36.8365 38.4295 37.2885 38.3242Z" fill="#DB1B4A"/>
<path d="M19.0515 18.304C19.1207 18.1413 19.1878 17.977 19.2502 17.8117C20.4761 14.5864 22.8906 11.9306 25.9848 10.3399C26.2912 10.1824 26.5991 10.0259 26.9087 9.87048C26.8389 9.92681 22.3835 13.5735 20.315 17.8096C26.8759 19.8098 29.732 12.461 31.0313 8.24792C31.7803 5.81747 33.3745 5.05652 33.3745 5.05652C33.3407 5.05235 32.9931 5.02783 32.4237 5.02783C28.9259 5.02783 17.0966 5.95933 19.0515 18.304Z" fill="#3AAA35"/>
<path d="M24.984 43.2278C27.7974 44.9866 31.0599 45.9177 34.3898 45.9122C36.3547 44.3475 32.5532 42.2676 26.0916 38.4837C17.3328 33.3537 18.0723 21.917 18.0723 21.917C14.8809 29.5917 17.6329 38.6495 24.984 43.2278Z" fill="#DB1B4A"/>
<path style="mix-blend-mode:overlay" d="M0.00366211 0C0.248223 0.104311 13.1144 5.64636 14.952 16.3988C15.5684 20.0053 15.682 22.3836 15.6593 24.1068C15.7174 23.8607 15.7813 23.6166 15.851 23.372C23.612 6.84334 0.315834 0.0891861 0.00366211 0Z" fill="url(#paint0_linear_1_224)"/>
<path style="mix-blend-mode:overlay" d="M19.0515 18.304C19.4514 6.5393 33.1489 5.07999 33.3713 5.05652C33.3375 5.05235 32.99 5.02783 32.4205 5.02783C28.9259 5.02783 17.0966 5.95933 19.0515 18.304Z" fill="url(#paint1_linear_1_224)"/>
<path d="M38.4922 26.9838C38.7035 27.1295 38.9214 27.2686 39.1461 27.4011C39.5603 27.6474 39.9881 27.8706 40.4275 28.0697C41.5222 28.5673 42.6825 28.9098 43.8741 29.0873C49.3606 29.9004 54.9597 27.0933 57.3894 21.8627C59.3597 17.6261 60.0928 11.3856 56.22 9.31298C55.1572 8.74397 54.0142 8.8222 52.8563 9.40843C56.6299 8.66052 56.5654 12.0214 56.1312 14.805C55.3981 19.5579 50.2332 32.3527 38.4922 26.9838Z" fill="#DB1B4A"/>
<defs>
<linearGradient id="paint0_linear_1_224" x1="17.4325" y1="12.0532" x2="0.00366211" y2="12.0532" gradientUnits="userSpaceOnUse">
<stop stop-color="white"/>
<stop offset="0.87" stop-color="#DADADA"/>
</linearGradient>
<linearGradient id="paint1_linear_1_224" x1="33.3713" y1="11.6662" x2="18.835" y2="11.6662" gradientUnits="userSpaceOnUse">
<stop stop-color="white"/>
<stop offset="0.87" stop-color="#DADADA"/>
</linearGradient>
</defs>
</svg>
