<svg width="52" height="46" viewBox="0 0 52 46" fill="none" xmlns="http://www.w3.org/2000/svg">
<path d="M22.9736 25.6184L20.3651 25.8509C19.9572 25.6184 19.1736 25.0095 18.8086 24.6331C17.7673 23.5592 17.1877 22.2307 17.0803 20.9575C17.0589 20.6586 17.295 20.415 17.5849 20.4372C18.8086 20.5479 20.0968 21.1457 21.1487 22.2196C21.9324 23.0389 22.716 24.4117 22.9736 25.6184Z" fill="#AFDC82"/>
<path d="M22.8341 25.6184L25.4426 25.8509C25.8505 25.6184 26.6342 25.0095 26.9991 24.6331C28.0404 23.5592 28.62 22.2307 28.7274 20.9575C28.7489 20.6586 28.5127 20.415 28.2229 20.4372C26.9991 20.5479 25.711 21.1457 24.659 22.2196C23.8754 23.0389 23.0917 24.4117 22.8341 25.6184Z" fill="#96CD82"/>
<path d="M27.2031 41.616C29.2104 38.3279 31.8082 36.7115 31.8082 32.7481C31.8082 27.6776 26.7415 25.1755 22.6087 25.1755C18.4758 25.1755 13.4091 27.6887 13.4091 32.7481C13.4091 36.7004 16.0069 38.3279 18.0143 41.616C20.0431 44.9373 21.1595 45.4133 22.6194 45.4133C24.0578 45.4133 25.1742 44.9373 27.2031 41.616Z" fill="#E0161B"/>
<path d="M20.7194 44.8929C21.3527 45.3026 21.9431 45.4133 22.5979 45.4133C24.0471 45.4133 25.1742 44.9372 27.2031 41.6159C29.2104 38.3278 31.8082 36.7115 31.8082 32.7481C31.8082 29.925 30.2302 27.899 28.1262 26.6479C28.62 27.9433 28.8562 29.4378 28.6952 31.1206C28.2336 36.0472 25.4533 37.8075 23.081 41.6934C22.1256 43.2434 21.3742 44.2508 20.7194 44.8929Z" fill="#B70A0E"/>
<path d="M38.8716 20.8358L36.8749 22.585C36.4134 22.6293 35.4365 22.6072 34.9212 22.5075C33.4613 22.2418 32.2483 21.5001 31.4647 20.5369C31.2822 20.3044 31.3359 19.9723 31.5828 19.8173C32.6455 19.1752 34.0303 18.8984 35.4902 19.1641C36.5744 19.3523 37.9806 20.0055 38.8716 20.8358Z" fill="#B8EE4C"/>
<path d="M38.7535 20.9243L41.0185 19.5736C41.2224 19.1418 41.523 18.1787 41.6089 17.6583C41.8665 16.1527 41.5981 14.7245 40.9755 13.6285C40.8252 13.3738 40.5032 13.3074 40.2778 13.5067C39.3331 14.3259 38.6139 15.577 38.367 17.0716C38.1738 18.1897 38.2919 19.784 38.7535 20.9243Z" fill="#9DD726"/>
<path d="M51.2593 31.4086C51.0661 27.5338 52.2791 24.6664 50.0677 21.4337C47.2445 17.2931 41.6948 18.2452 38.3134 20.703C34.932 23.1607 32.1947 28.2202 35.0179 32.3607C37.2292 35.5935 40.2563 35.3831 43.7236 36.8777C47.2338 38.3944 48.4146 38.1177 49.6062 37.2541C50.8084 36.3795 51.4632 35.3278 51.2593 31.4086Z" fill="#E0161B"/>
<path d="M47.792 37.9404C48.5434 37.8961 49.0801 37.6304 49.6169 37.2429C50.7977 36.3793 51.4525 35.3276 51.2593 31.4085C51.066 27.5336 52.279 24.6662 50.0677 21.4335C48.4897 19.1197 46.0637 18.4 43.6484 18.6325C44.7756 19.3964 45.8061 20.4814 46.6219 21.9538C48.9943 26.2494 47.7061 29.3382 47.9315 33.9327C48.0174 35.7483 47.9637 37.0215 47.792 37.9404Z" fill="#B70A0E"/>
<path d="M12.8295 32.7481C12.8295 35.7262 14.2142 37.4976 15.6849 39.3686C16.2967 40.1546 16.9408 40.9739 17.5205 41.926C19.6245 45.3691 20.8804 46.0001 22.6087 46.0001C23.2957 46.0001 24.1222 45.9116 25.024 45.2362C25.8398 44.6273 26.6771 43.5756 27.6861 41.926C28.2658 40.9739 28.9099 40.1546 29.5217 39.3686C30.9924 37.4976 32.3771 35.7262 32.3771 32.7481C32.3771 30.235 31.2393 28.0983 29.0816 26.5705C28.4483 26.1277 27.7398 25.7402 26.9991 25.4413C27.1387 25.3195 27.2782 25.1866 27.407 25.0538C28.663 23.7585 29.3607 22.0646 29.3178 20.415C29.3071 20.1051 29.0602 19.8504 28.7596 19.8394C27.1601 19.7951 25.5177 20.5147 24.2618 21.81C23.9934 22.0868 23.7573 22.3746 23.5426 22.6735C23.8646 17.2155 25.4963 13.3075 26.9025 10.9272C27.6217 9.69832 28.3409 8.74621 28.9313 8.05981C28.8133 9.10048 28.8991 10.1301 29.1782 11.0822C29.6935 12.7871 30.8099 14.1489 32.4093 15.0013C34.9427 16.352 36.3811 17.9462 37.1111 19.009C36.628 18.7987 36.1235 18.6437 35.5975 18.5551C33.8478 18.2451 32.1088 18.6326 30.8206 19.6179C30.5737 19.8061 30.5201 20.1604 30.6811 20.415C31.572 21.7878 33.0856 22.7621 34.8354 23.0721C34.932 23.0942 35.0393 23.1053 35.1359 23.1164C34.5777 23.9246 34.1269 24.7881 33.8048 25.6738C32.8924 28.209 33.15 30.6336 34.5563 32.6817C36.2201 35.1173 38.3456 35.7373 40.5891 36.4016C41.5337 36.6783 42.5106 36.9662 43.5196 37.398C45.366 38.1951 46.6327 38.5272 47.6202 38.5272C48.5756 38.5272 49.2626 38.2172 49.9604 37.7079C50.5293 37.2983 51.1519 36.7337 51.5062 35.6487C51.8282 34.6745 51.9356 33.3128 51.8389 31.3643C51.7853 30.235 51.8497 29.1943 51.9141 28.1758C52.0644 25.7734 52.2039 23.5039 50.5401 21.0682C49.3056 19.2637 47.4807 18.2008 45.2479 18.0126C44.9366 17.9905 44.6575 18.223 44.6253 18.5551C44.6038 18.8762 44.8293 19.164 45.1513 19.1972C47.0298 19.3633 48.5649 20.2379 49.5954 21.7546C51.0231 23.8471 50.905 25.7291 50.7547 28.0983C50.6903 29.139 50.6259 30.2239 50.6796 31.4196C50.8836 35.2723 50.2287 36.0584 49.2841 36.7448C48.3395 37.4312 47.4056 37.7965 43.949 36.313C42.8756 35.848 41.8665 35.5602 40.8897 35.2723C38.6676 34.6191 36.9179 34.1099 35.4794 32.0175C33.9873 29.8475 34.3201 27.6001 34.8676 26.1055C35.5331 24.2567 36.9393 22.4078 38.6247 21.1789C39.9021 20.249 41.4479 19.5847 42.9614 19.319C43.2727 19.2637 43.4874 18.9537 43.423 18.6326C43.3694 18.3116 43.0688 18.0901 42.7575 18.1455C42.5106 18.1898 42.2637 18.2451 42.0168 18.3005C42.0597 18.1123 42.1027 17.9351 42.1349 17.7469C42.4354 15.9424 42.0597 14.1489 41.1044 12.8203C40.9219 12.5657 40.5784 12.5104 40.3315 12.6764C39.0004 13.5953 38.0557 15.1563 37.7552 16.9609C37.7015 17.2598 37.6693 17.5587 37.6586 17.8576C36.7676 16.7173 35.2755 15.2338 32.8924 13.9607C30.7133 12.7982 29.1138 10.0194 30.4557 6.4213C30.5523 6.17774 30.4664 5.88989 30.2624 5.7349C30.0585 5.5799 29.7794 5.5799 29.5754 5.7349C29.5003 5.79025 27.7076 7.21841 25.9042 10.274C24.4013 12.8203 22.6409 16.9941 22.3403 22.8396C22.1041 22.4853 21.825 22.1421 21.5245 21.8211C20.2685 20.5258 18.6261 19.8061 17.0267 19.8504C16.7261 19.8615 16.4792 20.1161 16.4685 20.4261C16.4256 22.0757 17.1233 23.7696 18.3792 25.0649C18.4544 25.1424 18.5295 25.2199 18.6047 25.2863C17.6064 25.6406 16.6724 26.1388 15.8781 26.7255C15.6205 26.9137 15.5668 27.2901 15.7493 27.5558C15.9318 27.8215 16.2967 27.8769 16.5544 27.6887C18.1538 26.493 20.3973 25.7734 22.555 25.7734C24.616 25.7734 26.7952 26.4377 28.3839 27.5558C29.6613 28.4637 31.1856 30.0911 31.1856 32.7592C31.1856 35.3166 30.037 36.778 28.5878 38.6379C27.9545 39.4572 27.2889 40.2986 26.6771 41.306C24.6804 44.572 23.7143 44.8266 22.5657 44.8266C21.4171 44.8266 20.4403 44.572 18.4544 41.306C17.8318 40.2875 17.177 39.4461 16.5329 38.6379C15.0837 36.7891 13.9351 35.3166 13.9351 32.7592C13.9351 31.5082 14.2679 30.3679 14.9334 29.3715C15.1159 29.1058 15.0515 28.7294 14.7832 28.5522C14.5255 28.364 14.1606 28.4304 13.9888 28.7072C13.2374 29.8918 12.8295 31.2536 12.8295 32.7481ZM40.7286 18.7101C40.1382 18.9426 39.5586 19.2083 39.0111 19.5294C38.8286 18.7765 38.7964 17.9573 38.936 17.1491C39.1507 15.887 39.7303 14.7799 40.5569 14.016C41.0936 15.0124 41.2761 16.2634 41.0614 17.5255C40.9755 17.9351 40.8682 18.3337 40.7286 18.7101ZM37.5083 20.559C36.9715 20.9907 36.4778 21.4668 36.0269 21.9871C35.6941 21.9871 35.3614 21.965 35.0393 21.8986C33.8156 21.6771 32.7421 21.0793 32.0014 20.2268C32.9675 19.6733 34.1806 19.4851 35.4043 19.7065C36.1772 19.8504 36.8964 20.1383 37.5083 20.559ZM21.9968 24.5999C21.3313 24.6331 20.655 24.7327 20.0002 24.8877C19.7318 24.6884 19.4742 24.467 19.2273 24.2235C18.347 23.3156 17.7996 22.1864 17.6815 21.0572C18.7764 21.1789 19.8714 21.7436 20.7516 22.6514C21.3098 23.2271 21.7284 23.8913 21.9968 24.5999ZM25.668 24.9984C25.0562 24.8324 24.4336 24.7106 23.8002 24.6442C24.0686 23.9135 24.498 23.2381 25.0669 22.6514C25.9471 21.7436 27.0421 21.1789 28.137 21.0572C28.0082 22.1864 27.4714 23.3156 26.5912 24.2235C26.3014 24.5113 25.9901 24.777 25.668 24.9984Z" fill="black"/>
<path d="M22.029 32.7593C22.029 33.0914 22.2866 33.3461 22.5979 33.3461C22.92 33.3461 23.1669 33.0804 23.1669 32.7593V32.1283C23.1669 31.7961 22.9092 31.5415 22.5979 31.5415C22.2759 31.5415 22.029 31.8072 22.029 32.1283V32.7593Z" fill="black"/>
<path d="M16.4685 31.5415C16.1464 31.5415 15.8995 31.8072 15.8995 32.1283V32.7593C15.8995 33.0914 16.1572 33.3461 16.4685 33.3461C16.7798 33.3461 17.0374 33.0804 17.0374 32.7593V32.1283C17.0481 31.8072 16.7905 31.5415 16.4685 31.5415Z" fill="black"/>
<path d="M28.7381 31.5415C28.4161 31.5415 28.1692 31.8072 28.1692 32.1283V32.7593C28.1692 33.0914 28.4268 33.3461 28.7381 33.3461C29.0602 33.3461 29.3071 33.0804 29.3071 32.7593V32.1283C29.3071 31.8072 29.0494 31.5415 28.7381 31.5415Z" fill="black"/>
<path d="M25.0991 32.7593C25.0991 33.0914 25.3567 33.3461 25.6681 33.3461C25.9794 33.3461 26.237 33.0804 26.237 32.7593V32.1283C26.237 31.7961 25.9794 31.5415 25.6681 31.5415C25.3567 31.5415 25.0991 31.8072 25.0991 32.1283V32.7593Z" fill="black"/>
<path d="M18.9589 32.7593C18.9589 33.0914 19.2166 33.3461 19.5279 33.3461C19.8499 33.3461 20.0968 33.0804 20.0968 32.7593V32.1283C20.0968 31.7961 19.8392 31.5415 19.5279 31.5415C19.2058 31.5415 18.9589 31.8072 18.9589 32.1283V32.7593Z" fill="black"/>
<path d="M22.029 38.4609V39.0919C22.029 39.424 22.2866 39.6787 22.5979 39.6787C22.92 39.6787 23.1669 39.413 23.1669 39.0919V38.4609C23.1669 38.1287 22.9092 37.8741 22.5979 37.8741C22.2866 37.863 22.029 38.1287 22.029 38.4609Z" fill="black"/>
<path d="M25.0991 38.4608V39.0918C25.0991 39.424 25.3567 39.6786 25.6681 39.6786C25.9794 39.6786 26.237 39.4129 26.237 39.0918V38.4608C26.237 38.1287 25.9794 37.874 25.6681 37.874C25.3567 37.874 25.0991 38.1287 25.0991 38.4608Z" fill="black"/>
<path d="M18.9589 38.4609V39.0919C18.9589 39.424 19.2166 39.6787 19.5279 39.6787C19.8499 39.6787 20.0968 39.413 20.0968 39.0919V38.4609C20.0968 38.1287 19.8392 37.8741 19.5279 37.8741C19.2166 37.863 18.9589 38.1287 18.9589 38.4609Z" fill="black"/>
<path d="M20.494 35.9256C20.494 36.2577 20.7516 36.5123 21.0629 36.5123C21.3849 36.5123 21.6318 36.2466 21.6318 35.9256V35.2945C21.6318 34.9624 21.3742 34.7078 21.0629 34.7078C20.7409 34.7078 20.494 34.9735 20.494 35.2945V35.9256Z" fill="black"/>
<path d="M26.6234 35.2944V35.9254C26.6234 36.2575 26.881 36.5122 27.1923 36.5122C27.5144 36.5122 27.7613 36.2465 27.7613 35.9254V35.2944C27.7613 34.9622 27.5036 34.7076 27.1923 34.7076C26.881 34.6965 26.6234 34.9622 26.6234 35.2944Z" fill="black"/>
<path d="M23.564 35.9256C23.564 36.2577 23.8217 36.5123 24.133 36.5123C24.455 36.5123 24.7019 36.2466 24.7019 35.9256V35.2945C24.7019 34.9624 24.4443 34.7078 24.133 34.7078C23.8109 34.7078 23.564 34.9735 23.564 35.2945V35.9256Z" fill="black"/>
<path d="M17.4239 35.2944V35.9254C17.4239 36.2575 17.6815 36.5122 17.9928 36.5122C18.3149 36.5122 18.5618 36.2465 18.5618 35.9254V35.2944C18.5618 34.9622 18.3041 34.7076 17.9928 34.7076C17.6815 34.6965 17.4239 34.9622 17.4239 35.2944Z" fill="black"/>
<path d="M20.494 29.604C20.494 29.9362 20.7516 30.1908 21.0629 30.1908C21.3849 30.1908 21.6318 29.9251 21.6318 29.604V28.973C21.6318 28.6409 21.3742 28.3862 21.0629 28.3862C20.7409 28.3862 20.494 28.6519 20.494 28.973V29.604Z" fill="black"/>
<path d="M26.6234 29.604C26.6234 29.9362 26.881 30.1908 27.1923 30.1908C27.5144 30.1908 27.7613 29.9251 27.7613 29.604V28.973C27.7613 28.6409 27.5036 28.3862 27.1923 28.3862C26.8703 28.3862 26.6234 28.6519 26.6234 28.973V29.604Z" fill="black"/>
<path d="M23.564 29.604C23.564 29.9362 23.8217 30.1908 24.133 30.1908C24.455 30.1908 24.7019 29.9251 24.7019 29.604V28.973C24.7019 28.6409 24.4443 28.3862 24.133 28.3862C23.8109 28.3862 23.564 28.6519 23.564 28.973V29.604Z" fill="black"/>
<path d="M17.4239 29.604C17.4239 29.9362 17.6815 30.1908 17.9928 30.1908C18.3149 30.1908 18.5618 29.9251 18.5618 29.604V28.973C18.5618 28.6409 18.3041 28.3862 17.9928 28.3862C17.6708 28.3862 17.4239 28.6519 17.4239 28.973V29.604Z" fill="black"/>
<path d="M20.494 41.6161V42.2471C20.494 42.5792 20.7516 42.8339 21.0629 42.8339C21.3849 42.8339 21.6318 42.5682 21.6318 42.2471V41.6161C21.6318 41.2839 21.3742 41.0293 21.0629 41.0293C20.7516 41.0293 20.494 41.295 20.494 41.6161Z" fill="black"/>
<path d="M23.564 41.6161V42.2471C23.564 42.5792 23.8217 42.8339 24.133 42.8339C24.455 42.8339 24.7019 42.5682 24.7019 42.2471V41.6161C24.7019 41.2839 24.4443 41.0293 24.133 41.0293C23.8217 41.0293 23.564 41.295 23.564 41.6161Z" fill="black"/>
<path d="M42.6824 26.0169C42.4999 25.7512 42.1456 25.6847 41.8773 25.8729C41.6196 26.0611 41.5552 26.4265 41.7377 26.7033L42.092 27.2236C42.1993 27.3897 42.3818 27.4782 42.5643 27.4782C42.6824 27.4782 42.7897 27.445 42.8971 27.3675C43.1547 27.1793 43.2191 26.814 43.0366 26.5483L42.6824 26.0169Z" fill="black"/>
<path d="M37.6693 29.6594C37.4868 29.3937 37.1326 29.3273 36.8642 29.5155C36.6066 29.7037 36.5422 30.0691 36.7247 30.3458L37.0789 30.8662C37.1862 31.0322 37.3687 31.1208 37.5512 31.1208C37.6693 31.1208 37.7766 31.0876 37.884 31.0101C38.1416 30.8219 38.206 30.4565 38.0235 30.1798L37.6693 29.6594Z" fill="black"/>
<path d="M48.0496 22.8839L47.6954 22.3635C47.5129 22.0978 47.1586 22.0314 46.8903 22.2196C46.6326 22.4078 46.5682 22.7732 46.7507 23.0499L47.105 23.5703C47.2123 23.7363 47.3948 23.8249 47.5773 23.8249C47.6954 23.8249 47.8027 23.7917 47.91 23.7142C48.1677 23.526 48.2321 23.1496 48.0496 22.8839Z" fill="black"/>
<path d="M45.0761 25.6406C45.1942 25.6406 45.3015 25.6074 45.4089 25.5299C45.6665 25.3417 45.7309 24.9763 45.5484 24.6996L45.1942 24.1792C45.0117 23.9135 44.6575 23.8471 44.3891 24.0353C44.1315 24.2235 44.0671 24.5888 44.2496 24.8656L44.6038 25.386C44.7111 25.552 44.8936 25.6406 45.0761 25.6406Z" fill="black"/>
<path d="M40.1705 27.8325C39.988 27.5668 39.6337 27.5004 39.3654 27.6886C39.1077 27.8768 39.0433 28.2422 39.2258 28.5189L39.5801 29.0393C39.6874 29.2053 39.8699 29.2939 40.0524 29.2939C40.1705 29.2939 40.2778 29.2607 40.3851 29.1832C40.6428 28.995 40.7072 28.6296 40.5247 28.3639L40.1705 27.8325Z" fill="black"/>
<path d="M46.096 32.6374C46.214 32.6374 46.3214 32.6042 46.4287 32.5267C46.6864 32.3385 46.7508 31.9731 46.5683 31.6964L46.214 31.176C46.0316 30.9103 45.6773 30.8439 45.4197 31.0321C45.1621 31.2203 45.0976 31.5857 45.2801 31.8624L45.6344 32.3828C45.7417 32.5488 45.9242 32.6374 46.096 32.6374Z" fill="black"/>
<path d="M48.6078 30.8107C48.7259 30.8107 48.8332 30.7775 48.9406 30.7C49.1982 30.5117 49.2626 30.1464 49.0801 29.8807L48.7259 29.3604C48.5434 29.0947 48.1892 29.0282 47.9315 29.2164C47.6739 29.4046 47.6095 29.77 47.792 30.0468L48.1462 30.5671C48.2536 30.7221 48.4253 30.8107 48.6078 30.8107Z" fill="black"/>
<path d="M44.0671 33.523L43.7129 33.0027C43.5304 32.737 43.1761 32.6706 42.9078 32.8588C42.6502 33.047 42.5857 33.4123 42.7682 33.6891L43.1225 34.2094C43.2298 34.3755 43.4123 34.4641 43.5948 34.4641C43.7129 34.4641 43.8202 34.4309 43.9276 34.3534C44.1852 34.1541 44.2496 33.7887 44.0671 33.523Z" fill="black"/>
<path d="M43.1976 29.5154C43.0151 29.2497 42.6609 29.1833 42.4033 29.3715C42.1456 29.5597 42.0812 29.925 42.2637 30.2018L42.618 30.7221C42.7253 30.8882 42.9078 30.9768 43.0903 30.9768C43.2084 30.9768 43.3157 30.9436 43.4231 30.8661C43.6807 30.6778 43.7451 30.3125 43.5626 30.0468L43.1976 29.5154Z" fill="black"/>
<path d="M48.0925 27.3122C48.2106 27.3122 48.318 27.279 48.4253 27.2015C48.6829 27.0133 48.7474 26.648 48.5649 26.3712L48.2106 25.8508C48.0281 25.5851 47.6739 25.5187 47.4055 25.7069C47.1479 25.8951 47.0835 26.2605 47.266 26.5372L47.6202 27.0576C47.7383 27.2236 47.9101 27.3122 48.0925 27.3122Z" fill="black"/>
<path d="M45.5914 29.139C45.7095 29.139 45.8168 29.1058 45.9242 29.0283C46.1818 28.8401 46.2462 28.4748 46.0637 28.2091L45.7095 27.6887C45.527 27.423 45.1727 27.3566 44.9044 27.5448C44.6467 27.733 44.5823 28.0984 44.7648 28.3751L45.1191 28.8955C45.2264 29.0505 45.4089 29.139 45.5914 29.139Z" fill="black"/>
<path d="M40.6857 31.3311C40.5032 31.0654 40.149 30.9989 39.8914 31.1871C39.6337 31.3754 39.5693 31.7407 39.7518 32.0175L40.1061 32.5378C40.2134 32.7039 40.3959 32.7924 40.5784 32.7924C40.6965 32.7924 40.8038 32.7592 40.9111 32.6817C41.1688 32.4935 41.2332 32.1282 41.0507 31.8514L40.6857 31.3311Z" fill="black"/>
<path d="M40.0094 24.8546L39.6552 24.3342C39.4727 24.0685 39.1185 24.0021 38.8501 24.1903C38.5925 24.3785 38.5281 24.7439 38.7106 25.0206L39.0648 25.541C39.1721 25.707 39.3546 25.7956 39.5371 25.7956C39.6552 25.7956 39.7625 25.7624 39.8699 25.6849C40.1383 25.4967 40.1919 25.1203 40.0094 24.8546Z" fill="black"/>
<path d="M44.6683 20.6919C44.4858 20.4262 44.1315 20.3598 43.8739 20.548C43.6163 20.7362 43.5519 21.1015 43.7344 21.3672L44.0886 21.8876C44.1959 22.0536 44.3784 22.1422 44.5609 22.1422C44.679 22.1422 44.7864 22.109 44.8937 22.0315C45.1513 21.8433 45.2157 21.4779 45.0333 21.2012L44.6683 20.6919Z" fill="black"/>
<path d="M41.2332 23.205L41.5874 23.7253C41.6948 23.8914 41.8773 23.9799 42.0597 23.9799C42.1778 23.9799 42.2852 23.9467 42.3925 23.8692C42.6501 23.681 42.7146 23.3157 42.5321 23.0389L42.1778 22.5186C41.9953 22.2529 41.6411 22.1864 41.3727 22.3746C41.1044 22.5629 41.0507 22.9393 41.2332 23.205Z" fill="black"/>
<path d="M37.5083 26.6812L37.154 26.1609C36.9715 25.8952 36.6173 25.8288 36.3489 26.017C36.0806 26.2052 36.0269 26.5705 36.2094 26.8473L36.5636 27.3676C36.671 27.5337 36.8535 27.6223 37.0359 27.6223C37.154 27.6223 37.2614 27.5891 37.3687 27.5116C37.6263 27.3123 37.6908 26.9469 37.5083 26.6812Z" fill="black"/>
<path d="M47.0835 35.1949L46.7293 34.6746C46.5468 34.4089 46.1926 34.3424 45.9242 34.5306C45.6666 34.7189 45.6022 35.0842 45.7847 35.361L46.1389 35.8813C46.2462 36.0474 46.4287 36.1359 46.6112 36.1359C46.7293 36.1359 46.8366 36.1027 46.944 36.0252C47.2016 35.837 47.266 35.4606 47.0835 35.1949Z" fill="black"/>
<path d="M48.4361 32.7148C48.1785 32.903 48.1141 33.2684 48.2966 33.5452L48.6508 34.0655C48.7581 34.2316 48.9406 34.3201 49.1231 34.3201C49.2412 34.3201 49.3485 34.2869 49.4559 34.2094C49.7135 34.0212 49.7779 33.6559 49.5954 33.3902L49.2412 32.8698C49.0587 32.5931 48.6937 32.5266 48.4361 32.7148Z" fill="black"/>
<path opacity="0.85" d="M19.7857 29.3235C15.0787 30.3904 11.9408 30.1984 9.59262 28.726C7.25516 27.2429 5.72887 24.4901 4.6722 19.7848C3.61554 15.0795 3.79699 11.9426 5.26991 9.59526C6.75351 7.2586 9.51791 5.74351 14.2142 4.67654C18.9105 3.60958 22.0591 3.80163 24.4073 5.27404C26.7447 6.75713 28.271 9.5099 29.3277 14.2152C30.3843 18.9205 30.2029 22.0574 28.73 24.4047C27.2464 26.7521 24.4926 28.2672 19.7857 29.3235Z" fill="#DB1E46"/>
<mask id="path-47-outside-1_1_1691" maskUnits="userSpaceOnUse" x="-6.10352e-05" y="0" width="28" height="28" fill="black">
<rect fill="white" x="-6.10352e-05" width="28" height="28"/>
<path fill-rule="evenodd" clip-rule="evenodd" d="M6.59554 25.726C8.94334 27.1984 12.0809 27.3904 16.7871 26.3235C21.4934 25.2672 24.2468 23.7521 25.7301 21.4047C27.2029 19.0574 27.3843 15.9205 26.3278 11.2152C25.2713 6.5099 23.7452 3.75713 21.4081 2.27404C19.0602 0.801629 15.9121 0.609576 11.2164 1.67654C6.52083 2.74351 3.75683 4.2586 2.28411 6.59526C0.800727 8.94258 0.608634 12.0795 1.67582 16.7848C2.743 21.4901 4.2584 24.2429 6.59554 25.726ZM3.44734 16.39C1.61179 8.29173 3.52205 5.27222 11.622 3.44771C19.7112 1.61252 22.742 3.53306 24.5669 11.6207C26.3918 19.7083 24.4815 22.7385 16.3923 24.563C8.30303 26.3875 5.2829 24.4883 3.44734 16.39ZM13.0413 17.8602C13.2556 17.9882 13.5019 18.0309 13.7268 17.9775C13.9517 17.9242 14.1552 17.7855 14.2945 17.5827L18.8572 10.3907C19.1249 9.96388 19.0071 9.409 18.5787 9.14224C18.1503 8.87547 17.5933 8.99285 17.3256 9.41967L13.2448 15.8541L10.3958 14.0614C9.96742 13.7946 9.41047 13.912 9.14271 14.3388C8.87494 14.7657 8.99276 15.3205 9.42118 15.5873L13.0413 17.8602Z"/>
</mask>
<path fill-rule="evenodd" clip-rule="evenodd" d="M6.59554 25.726C8.94334 27.1984 12.0809 27.3904 16.7871 26.3235C21.4934 25.2672 24.2468 23.7521 25.7301 21.4047C27.2029 19.0574 27.3843 15.9205 26.3278 11.2152C25.2713 6.5099 23.7452 3.75713 21.4081 2.27404C19.0602 0.801629 15.9121 0.609576 11.2164 1.67654C6.52083 2.74351 3.75683 4.2586 2.28411 6.59526C0.800727 8.94258 0.608634 12.0795 1.67582 16.7848C2.743 21.4901 4.2584 24.2429 6.59554 25.726ZM3.44734 16.39C1.61179 8.29173 3.52205 5.27222 11.622 3.44771C19.7112 1.61252 22.742 3.53306 24.5669 11.6207C26.3918 19.7083 24.4815 22.7385 16.3923 24.563C8.30303 26.3875 5.2829 24.4883 3.44734 16.39ZM13.0413 17.8602C13.2556 17.9882 13.5019 18.0309 13.7268 17.9775C13.9517 17.9242 14.1552 17.7855 14.2945 17.5827L18.8572 10.3907C19.1249 9.96388 19.0071 9.409 18.5787 9.14224C18.1503 8.87547 17.5933 8.99285 17.3256 9.41967L13.2448 15.8541L10.3958 14.0614C9.96742 13.7946 9.41047 13.912 9.14271 14.3388C8.87494 14.7657 8.99276 15.3205 9.42118 15.5873L13.0413 17.8602Z" fill="white"/>
<path d="M16.7871 26.3235L16.5681 25.3477L16.566 25.3482L16.7871 26.3235ZM6.59554 25.726L6.05973 26.5703L6.06423 26.5731L6.59554 25.726ZM25.7301 21.4047L26.5755 21.939L26.5772 21.9362L25.7301 21.4047ZM26.3278 11.2152L25.3521 11.4343L26.3278 11.2152ZM21.4081 2.27404L21.9439 1.42969L21.9394 1.42686L21.4081 2.27404ZM11.2164 1.67654L10.9949 0.701399L11.2164 1.67654ZM2.28411 6.59526L3.12946 7.12947L3.1301 7.12845L2.28411 6.59526ZM1.67582 16.7848L2.65105 16.5636L1.67582 16.7848ZM11.622 3.44771L11.8417 4.42326L11.8432 4.42292L11.622 3.44771ZM3.44734 16.39L2.47208 16.6111L3.44734 16.39ZM24.5669 11.6207L25.5424 11.4006L24.5669 11.6207ZM16.3923 24.563L16.6123 25.5385L16.3923 24.563ZM13.7268 17.9775L13.9576 18.9505L13.9576 18.9505L13.7268 17.9775ZM13.0413 17.8602L12.5096 18.7071L12.5189 18.7129L12.5283 18.7185L13.0413 17.8602ZM14.2945 17.5827L15.1188 18.1488L15.1291 18.1338L15.1389 18.1184L14.2945 17.5827ZM18.8572 10.3907L19.7016 10.9264L19.7043 10.9221L18.8572 10.3907ZM18.5787 9.14224L19.1073 8.29335V8.29335L18.5787 9.14224ZM17.3256 9.41967L18.1701 9.95526L18.1727 9.9511L17.3256 9.41967ZM13.2448 15.8541L12.7123 16.7005L13.5557 17.2311L14.0893 16.3897L13.2448 15.8541ZM10.3958 14.0614L10.9284 13.215L10.9244 13.2125L10.3958 14.0614ZM9.14271 14.3388L9.98982 14.8703L9.98982 14.8703L9.14271 14.3388ZM9.42118 15.5873L9.95291 14.7404L9.94976 14.7384L9.42118 15.5873ZM16.566 25.3482C11.9436 26.3962 9.13488 26.1381 7.12684 24.8788L6.06423 26.5731C8.7518 28.2586 12.2181 28.3847 17.0082 27.2987L16.566 25.3482ZM24.8848 20.8705C23.6173 22.8762 21.1924 24.3098 16.5681 25.3477L17.0061 27.2992C21.7945 26.2245 24.8762 24.6279 26.5755 21.939L24.8848 20.8705ZM25.3521 11.4343C26.3906 16.0597 26.142 18.8667 24.8831 20.8733L26.5772 21.9362C28.2637 19.2481 28.3779 15.7813 27.3035 10.9961L25.3521 11.4343ZM20.8723 3.11839C22.8704 4.38634 24.3145 6.81349 25.3521 11.4343L27.3035 10.9961C26.228 6.20631 24.62 3.12791 21.9438 1.4297L20.8723 3.11839ZM11.438 2.65168C16.0493 1.60388 18.8687 1.86189 20.8767 3.12122L21.9394 1.42686C19.2518 -0.258629 15.7748 -0.384733 10.9949 0.701399L11.438 2.65168ZM3.1301 7.12845C4.38656 5.13492 6.82049 3.70091 11.438 2.65168L10.9949 0.701399C6.22118 1.78611 3.1271 3.38227 1.43812 6.06206L3.1301 7.12845ZM2.65105 16.5636C1.6028 11.9418 1.86157 9.1358 3.12946 7.12947L1.43876 6.06104C-0.260114 8.74936 -0.385536 12.2171 0.700586 17.006L2.65105 16.5636ZM7.13134 24.8816C5.13406 23.6142 3.69995 21.1883 2.65105 16.5636L0.700586 17.006C1.78605 21.7919 3.38275 24.8716 6.05974 26.5703L7.13134 24.8816ZM11.4022 2.47215C7.31858 3.39199 4.45393 4.67301 2.96345 7.03206C1.47284 9.39132 1.54662 12.528 2.47208 16.6111L4.4226 16.169C3.51251 12.1537 3.62364 9.73152 4.65425 8.10033C5.68499 6.46893 7.82544 5.32793 11.8417 4.42326L11.4022 2.47215ZM25.5424 11.4006C24.6221 7.322 23.3379 4.45888 20.9777 2.96774C18.6172 1.47635 15.4806 1.5469 11.4007 2.47249L11.8432 4.42292C15.8526 3.51333 18.276 3.62655 19.9095 4.65855C21.5432 5.69078 22.6868 7.83173 23.5914 11.8408L25.5424 11.4006ZM16.6123 25.5385C20.6918 24.6183 23.5529 23.3343 25.043 20.9744C26.5329 18.6146 26.4626 15.479 25.5424 11.4006L23.5914 11.8408C24.4961 15.85 24.3832 18.2732 23.3518 19.9066C22.3207 21.5398 20.182 22.6831 16.1723 23.5875L16.6123 25.5385ZM2.47208 16.6111C3.39754 20.6941 4.68193 23.5549 7.0411 25.0433C9.40017 26.5316 12.534 26.4583 16.6123 25.5385L16.1723 23.5875C12.1613 24.4921 9.74046 24.3815 8.10825 23.3518C6.47615 22.3221 5.3327 20.1842 4.4226 16.169L2.47208 16.6111ZM13.496 17.0045C13.522 16.9984 13.5405 16.9998 13.5494 17.0013C13.558 17.0028 13.559 17.0046 13.5544 17.0018L12.5283 18.7185C12.9444 18.9672 13.4557 19.0696 13.9576 18.9505L13.496 17.0045ZM13.4702 17.0166C13.4679 17.0198 13.4735 17.0099 13.496 17.0045L13.9576 18.9505C14.4299 18.8385 14.8426 18.5511 15.1188 18.1488L13.4702 17.0166ZM18.0128 9.855L13.4501 17.047L15.1389 18.1184L19.7016 10.9264L18.0128 9.855ZM18.0501 9.99112C18.0283 9.97753 18.0087 9.95028 18.0023 9.92108C17.9963 9.89363 18.0029 9.8707 18.0101 9.85928L19.7043 10.9221C20.2557 10.0432 20.0223 8.86315 19.1073 8.29335L18.0501 9.99112ZM18.1727 9.9511C18.1669 9.96028 18.157 9.97145 18.1433 9.98091C18.1303 9.98992 18.117 9.99527 18.105 9.99789C18.0804 10.0032 18.0602 9.99739 18.0501 9.99112L19.1073 8.29335C18.2305 7.74741 17.051 7.97561 16.4785 8.88825L18.1727 9.9511ZM14.0893 16.3897L18.17 9.95525L16.4811 8.8841L12.4004 15.3185L14.0893 16.3897ZM9.86327 14.9078L12.7123 16.7005L13.7774 15.0077L10.9284 13.215L9.86327 14.9078ZM9.98982 14.8703C9.98406 14.8794 9.97414 14.8906 9.96048 14.9001C9.94746 14.9091 9.93415 14.9144 9.92214 14.9171C9.89758 14.9224 9.87733 14.9166 9.86726 14.9103L10.9244 13.2125C10.0476 12.6666 8.86814 12.8948 8.2956 13.8074L9.98982 14.8703ZM9.94976 14.7384C9.97158 14.752 9.99115 14.7793 9.99757 14.8085C10.0036 14.8359 9.99698 14.8588 9.98982 14.8703L8.2956 13.8074C7.74422 14.6863 7.97753 15.8664 8.89261 16.4362L9.94976 14.7384ZM13.5731 17.0132L9.9529 14.7404L8.88946 16.4342L12.5096 18.7071L13.5731 17.0132Z" fill="#DB1E46" mask="url(#path-47-outside-1_1_1691)"/>
</svg>
